<svg width="40" height="40" viewBox="0 0 40 40" fill="none" xmlns="http://www.w3.org/2000/svg">
<path d="M0 5C0 2.23858 2.23858 0 5 0H35C37.7614 0 40 2.23858 40 5V35C40 37.7614 37.7614 40 35 40H5C2.23858 40 0 37.7614 0 35V5Z" fill="#FFCF21" style="fill:#FFCF21;fill:color(display-p3 1.0000 0.8118 0.1294);fill-opacity:1;"/>
<path d="M5 0.5H35C37.4853 0.5 39.5 2.51472 39.5 5V35C39.5 37.4853 37.4853 39.5 35 39.5H5C2.51472 39.5 0.5 37.4853 0.5 35V5C0.5 2.51472 2.51472 0.5 5 0.5Z" stroke="black" stroke-opacity="0.05" style="stroke:black;stroke-opacity:0.05;"/>
<path d="M19.25 11V15.5H11V14.75C11 13.7554 11.3951 12.8016 12.0983 12.0983C12.8016 11.3951 13.7554 11 14.75 11H19.25ZM20.75 11V23H29V14.75C29 13.7554 28.6049 12.8016 27.9016 12.0983C27.1984 11.3951 26.2446 11 25.25 11H20.75ZM29 24.5H20.75V29H25.25C26.2446 29 27.1984 28.6049 27.9016 27.9016C28.6049 27.1984 29 26.2446 29 25.25V24.5ZM19.25 29V17H11V25.25C11 26.2446 11.3951 27.1984 12.0983 27.9016C12.8016 28.6049 13.7554 29 14.75 29H19.25Z" fill="black" style="fill:black;fill-opacity:1;"/>
</svg>
