<svg width="40" height="40" viewBox="0 0 40 40" fill="none" xmlns="http://www.w3.org/2000/svg">
<rect width="40" height="40" rx="5" fill="#0171DF" style="fill:#0171DF;fill:color(display-p3 0.0039 0.4431 0.8745);fill-opacity:1;"/>
<rect x="0.5" y="0.5" width="39" height="39" rx="4.5" stroke="black" stroke-opacity="0.05" style="stroke:black;stroke-opacity:0.05;"/>
<path d="M19.25 11V15.5H11V14.75C11 13.7554 11.3951 12.8016 12.0983 12.0983C12.8016 11.3951 13.7554 11 14.75 11H19.25ZM20.75 11V23H29V14.75C29 13.7554 28.6049 12.8016 27.9016 12.0983C27.1984 11.3951 26.2446 11 25.25 11H20.75ZM29 24.5H20.75V29H25.25C26.2446 29 27.1984 28.6049 27.9016 27.9016C28.6049 27.1984 29 26.2446 29 25.25V24.5ZM19.25 29V17H11V25.25C11 26.2446 11.3951 27.1984 12.0983 27.9016C12.8016 28.6049 13.7554 29 14.75 29H19.25Z" fill="white" style="fill:white;fill-opacity:1;"/>
</svg>
