<svg width="81" height="80" viewBox="0 0 81 80" fill="none" xmlns="http://www.w3.org/2000/svg">
<g filter="url(#filter0_d_607_750)">
<rect x="8.5" y="2" width="64" height="64" rx="10" fill="white" fill-opacity="0.21" style="fill:white;fill-opacity:0.21;" shape-rendering="crispEdges"/>
<path d="M41 49C49.2843 49 56 42.2843 56 34C56 25.7157 49.2843 19 41 19C32.7157 19 26 25.7157 26 34C26 42.2843 32.7157 49 41 49Z" stroke="#0171DF" style="stroke:#0171DF;stroke:color(display-p3 0.0039 0.4431 0.8745);stroke-opacity:1;" stroke-width="2" stroke-linecap="round" stroke-linejoin="round"/>
<path d="M40.3925 33.9998V28.9178C40.3925 27.5033 40.3925 26.7953 40.8335 26.5628C41.276 26.3318 41.8385 26.7428 42.965 27.5648L44.2325 28.4918C45.077 29.1068 45.5 29.4158 45.5 29.8433C45.5 30.2708 45.077 30.5798 44.2325 31.1963L40.3925 33.9998ZM40.3925 33.9998V39.0818C40.3925 40.4963 40.3925 41.2028 40.8335 41.4368C41.276 41.6678 41.8385 41.2568 42.965 40.4348L44.2325 39.5093C45.077 38.8913 45.5 38.5838 45.5 38.1563C45.5 37.7288 45.077 37.4198 44.2325 36.8033L40.3925 33.9998ZM40.3925 33.9998L36.5 30.6668M40.3925 33.9998L36.5 37.3328" stroke="#0171DF" style="stroke:#0171DF;stroke:color(display-p3 0.0039 0.4431 0.8745);stroke-opacity:1;" stroke-width="2" stroke-linecap="round" stroke-linejoin="round"/>
</g>
<defs>
<filter id="filter0_d_607_750" x="0.5" y="0" width="80" height="80" filterUnits="userSpaceOnUse" color-interpolation-filters="sRGB">
<feFlood flood-opacity="0" result="BackgroundImageFix"/>
<feColorMatrix in="SourceAlpha" type="matrix" values="0 0 0 0 0 0 0 0 0 0 0 0 0 0 0 0 0 0 127 0" result="hardAlpha"/>
<feOffset dy="6"/>
<feGaussianBlur stdDeviation="4"/>
<feComposite in2="hardAlpha" operator="out"/>
<feColorMatrix type="matrix" values="0 0 0 0 1 0 0 0 0 1 0 0 0 0 1 0 0 0 0.25 0"/>
<feBlend mode="normal" in2="BackgroundImageFix" result="effect1_dropShadow_607_750"/>
<feBlend mode="normal" in="SourceGraphic" in2="effect1_dropShadow_607_750" result="shape"/>
</filter>
</defs>
</svg>
