<svg width="132" height="132" viewBox="0 0 132 132" fill="none" xmlns="http://www.w3.org/2000/svg">
<g filter="url(#filter0_d_608_799)">
<rect x="9" y="2" width="112" height="112" rx="17.5" fill="white" fill-opacity="0.24" style="fill:white;fill-opacity:0.24;" shape-rendering="crispEdges"/>
<rect x="9.5" y="2.5" width="111" height="111" rx="17" stroke="black" stroke-opacity="0.05" style="stroke:black;stroke-opacity:0.05;" shape-rendering="crispEdges"/>
<path d="M65.875 84.25C80.3725 84.25 92.125 72.4975 92.125 58C92.125 43.5025 80.3725 31.75 65.875 31.75C51.3775 31.75 39.625 43.5025 39.625 58C39.625 72.4975 51.3775 84.25 65.875 84.25Z" stroke="#0171DF" style="stroke:#0171DF;stroke:color(display-p3 0.0039 0.4431 0.8745);stroke-opacity:1;" stroke-width="2" stroke-linecap="round" stroke-linejoin="round"/>
<path d="M64.8119 58V49.1065C64.8119 46.6312 64.8119 45.3922 65.5836 44.9853C66.358 44.581 67.3424 45.3003 69.3138 46.7388L71.5319 48.361C73.0097 49.4373 73.75 49.978 73.75 50.7262C73.75 51.4743 73.0097 52.015 71.5319 53.0939L64.8119 58ZM64.8119 58V66.8935C64.8119 69.3689 64.8119 70.6053 65.5836 71.0148C66.358 71.419 67.3424 70.6998 69.3138 69.2613L71.5319 67.6417C73.0097 66.5602 73.75 66.022 73.75 65.2739C73.75 64.5258 73.0097 63.985 71.5319 62.9062L64.8119 58ZM64.8119 58L58 52.1673M64.8119 58L58 63.8328" stroke="#0171DF" style="stroke:#0171DF;stroke:color(display-p3 0.0039 0.4431 0.8745);stroke-opacity:1;" stroke-width="2" stroke-linecap="round" stroke-linejoin="round"/>
</g>
<defs>
<filter id="filter0_d_608_799" x="0.1" y="0.1" width="131.8" height="131.8" filterUnits="userSpaceOnUse" color-interpolation-filters="sRGB">
<feFlood flood-opacity="0" result="BackgroundImageFix"/>
<feColorMatrix in="SourceAlpha" type="matrix" values="0 0 0 0 0 0 0 0 0 0 0 0 0 0 0 0 0 0 127 0" result="hardAlpha"/>
<feOffset dx="1" dy="8"/>
<feGaussianBlur stdDeviation="4.95"/>
<feComposite in2="hardAlpha" operator="out"/>
<feColorMatrix type="matrix" values="0 0 0 0 1 0 0 0 0 1 0 0 0 0 1 0 0 0 0.24 0"/>
<feBlend mode="normal" in2="BackgroundImageFix" result="effect1_dropShadow_608_799"/>
<feBlend mode="normal" in="SourceGraphic" in2="effect1_dropShadow_608_799" result="shape"/>
</filter>
</defs>
</svg>
