<svg width="132" height="132" viewBox="0 0 132 132" fill="none" xmlns="http://www.w3.org/2000/svg">
<g filter="url(#filter0_d_608_952)">
<rect x="9" y="2" width="112" height="112" rx="17.5" fill="white" fill-opacity="0.24" style="fill:white;fill-opacity:0.24;" shape-rendering="crispEdges"/>
<rect x="9.5" y="2.5" width="111" height="111" rx="17" stroke="black" stroke-opacity="0.05" style="stroke:black;stroke-opacity:0.05;" shape-rendering="crispEdges"/>
<path d="M88.125 71.3125V72.2812C88.125 74.6268 87.1937 76.8766 85.5352 78.5352C83.8766 80.1937 81.6268 81.125 79.2812 81.125H68.4688V71.3125H88.125ZM62.5312 51.625V81.125H51.7188C49.3732 81.125 47.1234 80.1937 45.4648 78.5352C43.8063 76.8766 42.875 74.6268 42.875 72.2812V51.625H62.5312ZM79.2812 35.875C81.6268 35.875 83.8766 36.8063 85.5352 38.4648C87.1937 40.1234 88.125 42.3732 88.125 44.7188V65.375H68.4688V35.875H79.2812ZM51.7188 35.875H62.5312V45.6875H42.875V44.7188C42.875 42.3732 43.8063 40.1234 45.4648 38.4648C47.1234 36.8063 49.3732 35.875 51.7188 35.875Z" stroke="#0171DF" style="stroke:#0171DF;stroke:color(display-p3 0.0039 0.4431 0.8745);stroke-opacity:1;" stroke-width="2"/>
</g>
<defs>
<filter id="filter0_d_608_952" x="0.1" y="0.1" width="131.8" height="131.8" filterUnits="userSpaceOnUse" color-interpolation-filters="sRGB">
<feFlood flood-opacity="0" result="BackgroundImageFix"/>
<feColorMatrix in="SourceAlpha" type="matrix" values="0 0 0 0 0 0 0 0 0 0 0 0 0 0 0 0 0 0 127 0" result="hardAlpha"/>
<feOffset dx="1" dy="8"/>
<feGaussianBlur stdDeviation="4.95"/>
<feComposite in2="hardAlpha" operator="out"/>
<feColorMatrix type="matrix" values="0 0 0 0 1 0 0 0 0 1 0 0 0 0 1 0 0 0 0.24 0"/>
<feBlend mode="normal" in2="BackgroundImageFix" result="effect1_dropShadow_608_952"/>
<feBlend mode="normal" in="SourceGraphic" in2="effect1_dropShadow_608_952" result="shape"/>
</filter>
</defs>
</svg>
