<svg width="65" height="64" viewBox="0 0 65 64" fill="none" xmlns="http://www.w3.org/2000/svg">
<rect x="0.5" width="64" height="64" rx="10" fill="white" style="fill:white;fill-opacity:1;"/>
<path d="M36.9707 24.5233C36.9707 24.5233 37.7207 25.2733 38.4707 26.7733C38.4707 26.7733 40.853 23.0233 42.9707 22.2733" stroke="#0171DF" style="stroke:#0171DF;stroke:color(display-p3 0.0039 0.4431 0.8745);stroke-opacity:1;" stroke-width="2.25" stroke-linecap="round" stroke-linejoin="round"/>
<path d="M29.4923 17.032C25.7446 16.8733 22.8492 17.305 22.8492 17.305C21.0209 17.4358 17.5172 18.4607 17.5172 24.4468C17.5173 30.3819 17.4785 37.6989 17.5172 40.6158C17.5172 42.398 18.6207 46.5549 22.4399 46.7777C27.0822 47.0486 35.4441 47.1062 39.2807 46.7777C40.3077 46.7198 43.727 45.9135 44.1597 42.1934C44.6081 38.3394 44.5188 35.661 44.5188 35.0235" stroke="#0171DF" style="stroke:#0171DF;stroke:color(display-p3 0.0039 0.4431 0.8745);stroke-opacity:1;" stroke-width="2.25" stroke-linecap="round" stroke-linejoin="round"/>
<path d="M47.4988 24.5233C47.4988 28.6654 44.1377 32.0234 39.9916 32.0234C35.8454 32.0234 32.4844 28.6654 32.4844 24.5233C32.4844 20.3812 35.8454 17.0233 39.9916 17.0233C44.1377 17.0233 47.4988 20.3812 47.4988 24.5233Z" stroke="#0171DF" style="stroke:#0171DF;stroke:color(display-p3 0.0039 0.4431 0.8745);stroke-opacity:1;" stroke-width="2.25" stroke-linecap="round"/>
<path d="M24.9707 33.5234H30.9707" stroke="#0171DF" style="stroke:#0171DF;stroke:color(display-p3 0.0039 0.4431 0.8745);stroke-opacity:1;" stroke-width="2.25" stroke-linecap="round"/>
<path d="M24.9707 39.5234H36.9707" stroke="#0171DF" style="stroke:#0171DF;stroke:color(display-p3 0.0039 0.4431 0.8745);stroke-opacity:1;" stroke-width="2.25" stroke-linecap="round"/>
</svg>
