<svg width="65" height="64" viewBox="0 0 65 64" fill="none" xmlns="http://www.w3.org/2000/svg">
<rect x="0.5" width="64" height="64" rx="10" fill="white" style="fill:white;fill-opacity:1;"/>
<path d="M40.0353 18.5504L38.6033 18.1689C34.5535 17.0898 32.5285 16.5503 30.9332 17.4661C29.3379 18.3819 28.7953 20.3955 27.7102 24.4226L26.1755 30.1178C25.0903 34.1449 24.5477 36.1584 25.4687 37.7447C26.3898 39.3311 28.4148 39.8705 32.4647 40.9496L33.8966 41.3312C37.9465 42.4102 39.9715 42.9497 41.5668 42.034C43.162 41.1181 43.7047 39.1045 44.7898 35.0774L46.3244 29.3822C47.4097 25.3551 47.9523 23.3415 47.0312 21.7552C46.1102 20.169 44.0853 19.6294 40.0353 18.5504Z" stroke="#0171DF" style="stroke:#0171DF;stroke:color(display-p3 0.0039 0.4431 0.8745);stroke-opacity:1;" stroke-width="2.25"/>
<path d="M39.7792 25.1496C39.7792 26.3707 38.7837 27.3607 37.5556 27.3607C36.3276 27.3607 35.332 26.3707 35.332 25.1496C35.332 23.9285 36.3276 22.9386 37.5556 22.9386C38.7837 22.9386 39.7792 23.9285 39.7792 25.1496Z" stroke="#0171DF" style="stroke:#0171DF;stroke:color(display-p3 0.0039 0.4431 0.8745);stroke-opacity:1;" stroke-width="2.25"/>
<path d="M32.5 45.4194L31.0716 45.8084C27.031 46.9086 25.0108 47.4588 23.4193 46.5249C21.8278 45.5912 21.2864 43.5381 20.2038 39.432L18.6727 33.6251C17.5901 29.519 17.0488 27.4659 17.9677 25.8485C18.7625 24.4494 20.5 24.5004 22.75 24.5002" stroke="#0171DF" style="stroke:#0171DF;stroke:color(display-p3 0.0039 0.4431 0.8745);stroke-opacity:1;" stroke-width="2.25" stroke-linecap="round"/>
</svg>
