<svg width="302" height="295" viewBox="0 0 302 295" fill="none" xmlns="http://www.w3.org/2000/svg">
<rect width="252.056" height="294.065" rx="8.57333" fill="#FAFAFA" style="fill:#FAFAFA;fill:color(display-p3 0.9804 0.9804 0.9804);fill-opacity:1;"/>
<rect x="0.428667" y="0.428667" width="251.199" height="293.208" rx="8.14466" stroke="black" stroke-opacity="0.1" style="stroke:black;stroke-opacity:0.1;" stroke-width="0.857333"/>
<path d="M147.454 85.6855L96.9318 85.1132L108 46.6984L147.223 46.3732L147.454 85.6855Z" fill="white" style="fill:white;fill-opacity:1;"/>
<path d="M96.9167 85.1561L48.0107 85.1171L69.4696 47.0926H108L96.9167 85.1561Z" fill="#121660" style="fill:#121660;fill:color(display-p3 0.0706 0.0863 0.3765);fill-opacity:1;"/>
<path d="M195.222 85.6993L147.455 85.6863L147.024 46.2959L187.094 46.6992L195.222 85.6993Z" fill="#121660" style="fill:#121660;fill:color(display-p3 0.0706 0.0863 0.3765);fill-opacity:1;"/>
<path d="M245.068 85.9285L195.223 85.6944L187.095 46.6942L225.687 47.0454L245.068 85.9285Z" fill="white" style="fill:white;fill-opacity:1;"/>
<path d="M295.143 86.4807H244.374L225.44 46.9082H264.201L295.143 86.4807Z" fill="#121660" style="fill:#121660;fill:color(display-p3 0.0706 0.0863 0.3765);fill-opacity:1;"/>
<g filter="url(#filter0_d_415_7617)">
<path d="M55.7266 95.1638C55.7266 90.4289 59.565 86.5905 64.3 86.5905H276.061C280.796 86.5905 284.635 90.4289 284.635 95.1638V239.196C284.635 243.931 280.796 247.769 276.061 247.769H64.3C59.565 247.769 55.7266 243.931 55.7266 239.196V95.1638Z" fill="white" style="fill:white;fill-opacity:1;"/>
</g>
<path d="M72.4714 123.72C58.9557 123.72 48.0107 114.471 48.0107 103.05V85.1106H96.9321V103.05C96.9321 114.471 85.9718 123.72 72.4714 123.72Z" fill="#121660" style="fill:#121660;fill:color(display-p3 0.0706 0.0863 0.3765);fill-opacity:1;"/>
<g filter="url(#filter1_d_415_7617)">
<path d="M122.316 124.306C108.8 124.306 96.9626 115.083 96.9626 103.661L96.9318 85.1106H146.777V103.635C146.762 115.057 135.817 124.306 122.316 124.306Z" fill="white" style="fill:white;fill-opacity:1;"/>
</g>
<path d="M170.761 124.309C157.245 124.309 146.3 115.06 146.3 103.638V85.6992H195.222V103.638C195.222 115.06 184.277 124.309 170.761 124.309Z" fill="#121660" style="fill:#121660;fill:color(display-p3 0.0706 0.0863 0.3765);fill-opacity:1;"/>
<g filter="url(#filter2_d_415_7617)">
<path d="M221.068 124.309C207.552 124.309 195.222 115.06 195.222 103.638V85.6992H245.529V103.638C245.529 115.06 234.568 124.309 221.068 124.309Z" fill="white" style="fill:white;fill-opacity:1;"/>
</g>
<path d="M269.793 124C255.866 124 244 114.81 244 103.602V86L295 86.1149V103.717C295 114.924 283.705 124 269.793 124Z" fill="#121660" style="fill:#121660;fill:color(display-p3 0.0706 0.0863 0.3765);fill-opacity:1;"/>
<rect x="27.6694" y="141.46" width="66.0146" height="66.0146" rx="8.25183" fill="#0171DF" style="fill:#0171DF;fill:color(display-p3 0.0039 0.4431 0.8745);fill-opacity:1;"/>
<rect x="28.4946" y="142.285" width="64.3643" height="64.3643" rx="7.42665" stroke="black" stroke-opacity="0.05" style="stroke:black;stroke-opacity:0.05;" stroke-width="1.65037"/>
<path d="M62.0928 178.219L74.3616 190.488C74.6729 190.788 75.0898 190.955 75.5225 190.951C75.9552 190.947 76.3691 190.773 76.6751 190.467C76.9811 190.161 77.1547 189.748 77.1584 189.315C77.1622 188.882 76.9959 188.465 76.6952 188.154L46.9903 158.447C46.838 158.29 46.6559 158.164 46.4546 158.078C46.2532 157.991 46.0367 157.946 45.8175 157.944C45.5984 157.942 45.3811 157.983 45.1783 158.066C44.9754 158.149 44.7912 158.272 44.6362 158.427C44.4813 158.582 44.3587 158.766 44.2757 158.969C44.1927 159.172 44.151 159.389 44.1529 159.608C44.1548 159.827 44.2003 160.044 44.2868 160.245C44.3733 160.447 44.499 160.629 44.6567 160.781L49.7679 165.892C48.7067 166.6 47.6983 167.422 46.7625 168.359C45.9177 169.216 45.1501 170.146 44.4685 171.137C44.345 171.315 44.2578 171.516 44.2118 171.728C44.1658 171.94 44.1621 172.159 44.2007 172.372C44.2787 172.803 44.5246 173.185 44.8844 173.434C45.0626 173.558 45.2633 173.645 45.4752 173.691C45.687 173.737 45.9059 173.741 46.1192 173.702C46.55 173.624 46.9322 173.378 47.1817 173.018C47.7808 172.154 48.4377 171.352 49.0962 170.691C50.0179 169.77 51.0456 168.961 52.1576 168.282L54.0588 170.185C51.7919 171.488 49.9547 173.425 48.7727 175.758C48.5864 176.147 48.5598 176.594 48.6987 177.002C48.8376 177.411 49.131 177.748 49.5159 177.943C49.9008 178.138 50.3467 178.175 50.7581 178.045C51.1695 177.915 51.5137 177.629 51.7169 177.248C52.1994 176.295 52.8305 175.424 53.5868 174.669C54.4318 173.822 55.421 173.132 56.5079 172.632L58.83 174.954C57.238 175.312 55.781 176.117 54.6298 177.273C53.8711 178.041 53.2612 178.943 52.8309 179.933C52.6615 180.333 52.6566 180.784 52.8172 181.187C52.9778 181.591 53.2909 181.915 53.6887 182.089C54.0866 182.263 54.537 182.274 54.9424 182.118C55.3478 181.962 55.6755 181.653 55.8544 181.257C56.13 180.628 56.5046 180.066 56.9634 179.607C57.6224 178.947 58.4428 178.472 59.3428 178.228C60.2429 177.985 61.1911 177.981 62.0928 178.219ZM59.8945 168.432L63.5715 172.111C65.2035 172.585 66.6888 173.465 67.8889 174.669C68.6439 175.438 69.2768 176.319 69.7653 177.28C69.8614 177.477 69.9958 177.654 70.1608 177.798C70.3258 177.943 70.5181 178.054 70.7263 178.123C70.9346 178.193 71.1546 178.22 71.3736 178.204C71.5925 178.187 71.806 178.127 72.0015 178.027C72.1969 177.927 72.3705 177.789 72.5119 177.621C72.6534 177.453 72.7599 177.259 72.8252 177.049C72.8905 176.839 72.9134 176.619 72.8924 176.4C72.8714 176.182 72.807 175.97 72.703 175.776C72.0576 174.509 71.2209 173.348 70.2225 172.335C68.8783 170.987 67.2614 169.941 65.4803 169.268C63.6991 168.594 61.7947 168.31 59.8945 168.432ZM54.917 163.455L57.6417 166.179C60.7643 165.589 63.9911 165.923 66.9271 167.139C69.8631 168.354 72.3808 170.4 74.1718 173.025C74.2942 173.205 74.451 173.359 74.6332 173.478C74.8154 173.597 75.0194 173.679 75.2333 173.719C75.4473 173.759 75.6671 173.756 75.88 173.711C76.0929 173.666 76.2948 173.579 76.4739 173.455C76.6531 173.332 76.806 173.174 76.9239 172.991C77.0418 172.808 77.1223 172.603 77.1608 172.389C77.1993 172.175 77.1951 171.955 77.1483 171.742C77.1016 171.53 77.0132 171.329 76.8883 171.15C74.5234 167.694 71.1167 165.084 67.1645 163.7C63.2124 162.316 58.9214 162.23 54.917 163.455ZM62.4295 181.797C62.6595 182.027 62.842 182.3 62.9665 182.601C63.091 182.901 63.1551 183.223 63.1551 183.549C63.1551 183.874 63.091 184.196 62.9665 184.497C62.842 184.797 62.6595 185.07 62.4295 185.3C62.1994 185.531 61.9263 185.713 61.6257 185.838C61.3251 185.962 61.0029 186.026 60.6776 186.026C60.3522 186.026 60.0301 185.962 59.7295 185.838C59.4289 185.713 59.1558 185.531 58.9257 185.3C58.4611 184.836 58.2001 184.206 58.2001 183.549C58.2001 182.892 58.4611 182.261 58.9257 181.797C59.3904 181.332 60.0205 181.071 60.6776 181.071C61.3347 181.071 61.9648 181.332 62.4295 181.797Z" fill="white" style="fill:white;fill-opacity:1;"/>
<rect x="114.436" y="141.46" width="66.0146" height="66.0146" rx="8.25183" fill="#0171DF" style="fill:#0171DF;fill:color(display-p3 0.0039 0.4431 0.8745);fill-opacity:1;"/>
<rect x="115.261" y="142.285" width="64.3643" height="64.3643" rx="7.42665" stroke="black" stroke-opacity="0.05" style="stroke:black;stroke-opacity:0.05;" stroke-width="1.65037"/>
<path d="M160.316 158.624C160.579 158.624 160.831 158.728 161.017 158.914C161.202 159.1 161.307 159.352 161.307 159.614V160.604H162.297C162.559 160.604 162.811 160.709 162.997 160.894C163.183 161.08 163.287 161.332 163.287 161.595C163.287 161.857 163.183 162.109 162.997 162.295C162.811 162.481 162.559 162.585 162.297 162.585H161.307V163.575C161.307 163.838 161.202 164.09 161.017 164.275C160.831 164.461 160.579 164.565 160.316 164.565C160.054 164.565 159.802 164.461 159.616 164.275C159.431 164.09 159.326 163.838 159.326 163.575V162.585H158.336C158.073 162.585 157.821 162.481 157.636 162.295C157.45 162.109 157.346 161.857 157.346 161.595C157.346 161.332 157.45 161.08 157.636 160.894C157.821 160.709 158.073 160.604 158.336 160.604H159.326V159.614C159.326 159.352 159.431 159.1 159.616 158.914C159.802 158.728 160.054 158.624 160.316 158.624ZM134.571 184.37C134.833 184.37 135.085 184.474 135.271 184.66C135.457 184.845 135.561 185.097 135.561 185.36V186.35H136.551C136.814 186.35 137.066 186.454 137.251 186.64C137.437 186.826 137.541 187.078 137.541 187.34C137.541 187.603 137.437 187.855 137.251 188.041C137.066 188.226 136.814 188.331 136.551 188.331H135.561V189.321C135.561 189.583 135.457 189.835 135.271 190.021C135.085 190.207 134.833 190.311 134.571 190.311C134.308 190.311 134.056 190.207 133.871 190.021C133.685 189.835 133.58 189.583 133.58 189.321V188.331H132.59C132.328 188.331 132.076 188.226 131.89 188.041C131.704 187.855 131.6 187.603 131.6 187.34C131.6 187.078 131.704 186.826 131.89 186.64C132.076 186.454 132.328 186.35 132.59 186.35H133.58V185.36C133.58 185.097 133.685 184.845 133.871 184.66C134.056 184.474 134.308 184.37 134.571 184.37ZM142.494 158.624C141.207 158.624 140.264 159.64 140.041 160.719C139.722 162.283 138.955 163.721 137.832 164.856C136.418 166.272 134.783 166.837 133.699 167.063C132.618 167.286 131.6 168.231 131.6 169.52C131.602 170.808 132.618 171.746 133.697 171.97C134.781 172.194 136.416 172.76 137.83 174.176C139.245 175.592 139.813 177.228 140.039 178.315C140.264 179.391 141.205 180.409 142.492 180.409C143.78 180.409 144.722 179.391 144.948 178.312C145.264 176.748 146.03 175.312 147.152 174.178C148.287 173.056 149.724 172.288 151.288 171.97C152.369 171.746 153.385 170.806 153.385 169.516C153.385 168.229 152.369 167.286 151.288 167.063C149.725 166.745 148.288 165.978 147.154 164.856C146.033 163.721 145.266 162.283 144.948 160.719C144.724 159.64 143.782 158.624 142.494 158.624ZM141.502 184.37V182.276C142.153 182.436 142.832 182.436 143.483 182.276V184.37C143.483 185.42 143.9 186.428 144.643 187.17C145.386 187.913 146.393 188.331 147.444 188.331H157.346C158.396 188.331 159.404 187.913 160.147 187.17C160.889 186.428 161.307 185.42 161.307 184.37V174.467C161.307 173.417 160.889 172.41 160.147 171.667C159.404 170.924 158.396 170.507 157.346 170.507H155.25C155.41 169.856 155.41 169.177 155.25 168.526H157.346C158.921 168.526 160.433 169.152 161.547 170.266C162.661 171.381 163.287 172.892 163.287 174.467V184.37C163.287 185.945 162.661 187.457 161.547 188.571C160.433 189.685 158.921 190.311 157.346 190.311H147.444C145.868 190.311 144.357 189.685 143.242 188.571C142.128 187.457 141.502 185.945 141.502 184.37ZM147.444 181.399C147.444 181.136 147.548 180.885 147.734 180.699C147.919 180.513 148.171 180.409 148.434 180.409H154.375C154.638 180.409 154.89 180.513 155.075 180.699C155.261 180.885 155.365 181.136 155.365 181.399C155.365 181.662 155.261 181.914 155.075 182.099C154.89 182.285 154.638 182.389 154.375 182.389H148.434C148.171 182.389 147.919 182.285 147.734 182.099C147.548 181.914 147.444 181.662 147.444 181.399ZM148.434 176.448C148.171 176.448 147.919 176.552 147.734 176.738C147.548 176.924 147.444 177.176 147.444 177.438C147.444 177.701 147.548 177.953 147.734 178.138C147.919 178.324 148.171 178.428 148.434 178.428H157.346C157.608 178.428 157.86 178.324 158.046 178.138C158.232 177.953 158.336 177.701 158.336 177.438C158.336 177.176 158.232 176.924 158.046 176.738C157.86 176.552 157.608 176.448 157.346 176.448H148.434Z" fill="white" style="fill:white;fill-opacity:1;"/>
<rect x="201.203" y="141.46" width="66.0152" height="66.0152" rx="8.2519" fill="#0171DF" style="fill:#0171DF;fill:color(display-p3 0.0039 0.4431 0.8745);fill-opacity:1;"/>
<rect x="202.028" y="142.285" width="64.3648" height="64.3648" rx="7.42671" stroke="black" stroke-opacity="0.05" style="stroke:black;stroke-opacity:0.05;" stroke-width="1.65038"/>
<path d="M232.508 158.5C233.002 158.139 233.598 157.945 234.211 157.945C234.823 157.945 235.419 158.139 235.914 158.5L248.161 167.439C249.774 168.614 248.944 171.164 246.95 171.169H221.47C219.476 171.164 218.648 168.614 220.258 167.439L232.508 158.5ZM235.861 164.978C235.861 164.54 235.687 164.12 235.378 163.811C235.068 163.501 234.648 163.328 234.211 163.328C233.773 163.328 233.353 163.501 233.044 163.811C232.734 164.12 232.56 164.54 232.56 164.978C232.56 165.416 232.734 165.835 233.044 166.145C233.353 166.454 233.773 166.628 234.211 166.628C234.648 166.628 235.068 166.454 235.378 166.145C235.687 165.835 235.861 165.416 235.861 164.978ZM232.973 181.069H229.672V172.817H232.973V181.069ZM238.749 181.069H235.448V172.817H238.749V181.069ZM244.938 181.069H241.225V172.817H244.938V181.069ZM245.351 182.72H223.071C222.086 182.72 221.141 183.111 220.445 183.807C219.749 184.504 219.357 185.448 219.357 186.433V187.258C219.357 187.943 219.912 188.496 220.595 188.496H247.826C248.155 188.496 248.469 188.365 248.702 188.133C248.934 187.901 249.064 187.586 249.064 187.258V186.433C249.064 185.448 248.673 184.504 247.977 183.807C247.28 183.111 246.336 182.72 245.351 182.72ZM227.197 181.069H223.483V172.817H227.197V181.069Z" fill="white" style="fill:white;fill-opacity:1;"/>
<defs>
<filter id="filter0_d_415_7617" x="38.58" y="69.4439" width="263.201" height="195.472" filterUnits="userSpaceOnUse" color-interpolation-filters="sRGB">
<feFlood flood-opacity="0" result="BackgroundImageFix"/>
<feColorMatrix in="SourceAlpha" type="matrix" values="0 0 0 0 0 0 0 0 0 0 0 0 0 0 0 0 0 0 127 0" result="hardAlpha"/>
<feOffset/>
<feGaussianBlur stdDeviation="8.57333"/>
<feComposite in2="hardAlpha" operator="out"/>
<feColorMatrix type="matrix" values="0 0 0 0 0 0 0 0 0 0 0 0 0 0 0 0 0 0 0.08 0"/>
<feBlend mode="normal" in2="BackgroundImageFix" result="effect1_dropShadow_415_7617"/>
<feBlend mode="normal" in="SourceGraphic" in2="effect1_dropShadow_415_7617" result="shape"/>
</filter>
<filter id="filter1_d_415_7617" x="85.7865" y="74.8226" width="72.1358" height="61.486" filterUnits="userSpaceOnUse" color-interpolation-filters="sRGB">
<feFlood flood-opacity="0" result="BackgroundImageFix"/>
<feColorMatrix in="SourceAlpha" type="matrix" values="0 0 0 0 0 0 0 0 0 0 0 0 0 0 0 0 0 0 127 0" result="hardAlpha"/>
<feOffset dy="0.857333"/>
<feGaussianBlur stdDeviation="5.57267"/>
<feComposite in2="hardAlpha" operator="out"/>
<feColorMatrix type="matrix" values="0 0 0 0 0 0 0 0 0 0 0 0 0 0 0 0 0 0 0.11 0"/>
<feBlend mode="normal" in2="BackgroundImageFix" result="effect1_dropShadow_415_7617"/>
<feBlend mode="normal" in="SourceGraphic" in2="effect1_dropShadow_415_7617" result="shape"/>
</filter>
<filter id="filter2_d_415_7617" x="184.076" y="75.4112" width="72.5975" height="60.9006" filterUnits="userSpaceOnUse" color-interpolation-filters="sRGB">
<feFlood flood-opacity="0" result="BackgroundImageFix"/>
<feColorMatrix in="SourceAlpha" type="matrix" values="0 0 0 0 0 0 0 0 0 0 0 0 0 0 0 0 0 0 127 0" result="hardAlpha"/>
<feOffset dy="0.857333"/>
<feGaussianBlur stdDeviation="5.57267"/>
<feComposite in2="hardAlpha" operator="out"/>
<feColorMatrix type="matrix" values="0 0 0 0 0 0 0 0 0 0 0 0 0 0 0 0 0 0 0.11 0"/>
<feBlend mode="normal" in2="BackgroundImageFix" result="effect1_dropShadow_415_7617"/>
<feBlend mode="normal" in="SourceGraphic" in2="effect1_dropShadow_415_7617" result="shape"/>
</filter>
</defs>
</svg>
