<svg width="40" height="40" viewBox="0 0 40 40" fill="none" xmlns="http://www.w3.org/2000/svg">
<rect width="40" height="40" rx="5" fill="#0171DF" style="fill:#0171DF;fill:color(display-p3 0.0039 0.4431 0.8745);fill-opacity:1;"/>
<rect x="0.5" y="0.5" width="39" height="39" rx="4.5" stroke="black" stroke-opacity="0.05" style="stroke:black;stroke-opacity:0.05;"/>
<path d="M18.968 10.325C19.2676 10.1062 19.629 9.98834 20 9.98834C20.371 9.98834 20.7324 10.1062 21.032 10.325L28.453 15.741C29.43 16.453 28.927 17.998 27.719 18.001H12.28C11.072 17.998 10.57 16.453 11.546 15.741L18.968 10.325ZM21 14.25C21 13.9848 20.8946 13.7305 20.7071 13.5429C20.5196 13.3554 20.2652 13.25 20 13.25C19.7348 13.25 19.4804 13.3554 19.2929 13.5429C19.1054 13.7305 19 13.9848 19 14.25C19 14.5152 19.1054 14.7696 19.2929 14.9571C19.4804 15.1447 19.7348 15.25 20 15.25C20.2652 15.25 20.5196 15.1447 20.7071 14.9571C20.8946 14.7696 21 14.5152 21 14.25ZM19.25 24H17.25V19H19.25V24ZM22.75 24H20.75V19H22.75V24ZM26.5 24H24.25V19H26.5V24ZM26.75 25H13.25C12.6533 25 12.081 25.2371 11.659 25.659C11.2371 26.081 11 26.6533 11 27.25V27.75C11 28.165 11.336 28.5 11.75 28.5H28.25C28.4489 28.5 28.6397 28.421 28.7803 28.2804C28.921 28.1397 29 27.9489 29 27.75V27.25C29 26.6533 28.7629 26.081 28.341 25.659C27.919 25.2371 27.3467 25 26.75 25ZM15.75 24H13.5V19H15.75V24Z" fill="white" style="fill:white;fill-opacity:1;"/>
</svg>
