<svg width="65" height="64" viewBox="0 0 65 64" fill="none" xmlns="http://www.w3.org/2000/svg">
<rect x="0.5" width="64" height="64" rx="10" fill="white" style="fill:white;fill-opacity:1;"/>
<path d="M32.5 42.5V21.5C32.5 19.0147 30.4854 17 28 17C25.5147 17 23.5 19.0147 23.5 21.5C23.5 22.3284 22.8284 23 22 23C19.5147 23 17.5 25.0147 17.5 27.5C17.5 29.9854 19.5147 32 22 32C19.5147 32 17.5 34.0146 17.5 36.5C17.5 38.9854 19.5147 41 22 41C22.8284 41 23.5 41.6716 23.5 42.5C23.5 44.9854 25.5147 47 28 47C30.4854 47 32.5 44.9854 32.5 42.5Z" stroke="#0171DF" style="stroke:#0171DF;stroke:color(display-p3 0.0039 0.4431 0.8745);stroke-opacity:1;" stroke-width="2.25" stroke-linejoin="round"/>
<path d="M32.5 42.5V21.5C32.5 19.0147 34.5146 17 37 17C39.4854 17 41.5 19.0147 41.5 21.5C41.5 22.3284 42.1716 23 43 23C45.4854 23 47.5 25.0147 47.5 27.5C47.5 29.9854 45.4854 32 43 32C45.4854 32 47.5 34.0146 47.5 36.5C47.5 38.9854 45.4854 41 43 41C42.1716 41 41.5 41.6716 41.5 42.5C41.5 44.9854 39.4854 47 37 47C34.5146 47 32.5 44.9854 32.5 42.5Z" stroke="#0171DF" style="stroke:#0171DF;stroke:color(display-p3 0.0039 0.4431 0.8745);stroke-opacity:1;" stroke-width="2.25" stroke-linejoin="round"/>
</svg>
