<svg width="65" height="64" viewBox="0 0 65 64" fill="none" xmlns="http://www.w3.org/2000/svg">
<rect x="0.5" width="64" height="64" rx="10" fill="white" style="fill:white;fill-opacity:1;"/>
<path d="M18.25 32C18.25 25.2825 18.25 21.9237 20.3369 19.8369C22.4237 17.75 25.7825 17.75 32.5 17.75C39.2175 17.75 42.5763 17.75 44.6632 19.8369C46.75 21.9237 46.75 25.2825 46.75 32C46.75 38.7175 46.75 42.0763 44.6632 44.1632C42.5763 46.25 39.2175 46.25 32.5 46.25C25.7825 46.25 22.4237 46.25 20.3369 44.1632C18.25 42.0763 18.25 38.7175 18.25 32Z" stroke="#0171DF" style="stroke:#0171DF;stroke:color(display-p3 0.0039 0.4431 0.8745);stroke-opacity:1;" stroke-width="2.25" stroke-linejoin="round"/>
<path d="M31 25.25H40M26.5 25.25C26.5 25.6642 26.1642 26 25.75 26C25.3358 26 25 25.6642 25 25.25C25 24.8358 25.3358 24.5 25.75 24.5C26.1642 24.5 26.5 24.8358 26.5 25.25Z" stroke="#0171DF" style="stroke:#0171DF;stroke:color(display-p3 0.0039 0.4431 0.8745);stroke-opacity:1;" stroke-width="2.25" stroke-linecap="round" stroke-linejoin="round"/>
<path d="M31 32H40M26.5 32C26.5 32.4142 26.1642 32.75 25.75 32.75C25.3358 32.75 25 32.4142 25 32C25 31.5858 25.3358 31.25 25.75 31.25C26.1642 31.25 26.5 31.5858 26.5 32Z" stroke="#0171DF" style="stroke:#0171DF;stroke:color(display-p3 0.0039 0.4431 0.8745);stroke-opacity:1;" stroke-width="2.25" stroke-linecap="round" stroke-linejoin="round"/>
<path d="M31 38.75H40M26.5 38.75C26.5 39.1642 26.1642 39.5 25.75 39.5C25.3358 39.5 25 39.1642 25 38.75C25 38.3358 25.3358 38 25.75 38C26.1642 38 26.5 38.3358 26.5 38.75Z" stroke="#0171DF" style="stroke:#0171DF;stroke:color(display-p3 0.0039 0.4431 0.8745);stroke-opacity:1;" stroke-width="2.25" stroke-linecap="round" stroke-linejoin="round"/>
</svg>
