<svg width="65" height="64" viewBox="0 0 65 64" fill="none" xmlns="http://www.w3.org/2000/svg">
<rect x="0.5" width="64" height="64" rx="10" fill="white" style="fill:white;fill-opacity:1;"/>
<path d="M45.9988 29C45.9861 23.6231 45.8292 20.7922 43.9132 18.977C41.8263 17 38.4675 17 31.75 17C25.0325 17 21.6737 17 19.5869 18.977C17.5 20.9541 17.5 24.136 17.5 30.5C17.5 36.8639 17.5 40.046 19.5869 42.023C21.4264 43.7657 24.2543 43.9723 29.5 43.9967" stroke="#0171DF" style="stroke:#0171DF;stroke:color(display-p3 0.0039 0.4431 0.8745);stroke-opacity:1;" stroke-width="2.25" stroke-linecap="round"/>
<path d="M37 40.25C37 40.25 37.75 40.25 38.5 41.75C38.5 41.75 40.8823 38 43 37.25" stroke="#0171DF" style="stroke:#0171DF;stroke:color(display-p3 0.0039 0.4431 0.8745);stroke-opacity:1;" stroke-width="2.25" stroke-linecap="round" stroke-linejoin="round"/>
<path d="M47.5 39.5C47.5 43.6421 44.1421 47 40 47C35.8579 47 32.5 43.6421 32.5 39.5C32.5 35.3579 35.8579 32 40 32C44.1421 32 47.5 35.3579 47.5 39.5Z" stroke="#0171DF" style="stroke:#0171DF;stroke:color(display-p3 0.0039 0.4431 0.8745);stroke-opacity:1;" stroke-width="2.25" stroke-linecap="round"/>
<path d="M17.5 26.75H46" stroke="#0171DF" style="stroke:#0171DF;stroke:color(display-p3 0.0039 0.4431 0.8745);stroke-opacity:1;" stroke-width="2.25" stroke-linejoin="round"/>
<path d="M24.25 22.25H24.2635" stroke="#0171DF" style="stroke:#0171DF;stroke:color(display-p3 0.0039 0.4431 0.8745);stroke-opacity:1;" stroke-width="3" stroke-linecap="round" stroke-linejoin="round"/>
<path d="M30.25 22.25H30.2635" stroke="#0171DF" style="stroke:#0171DF;stroke:color(display-p3 0.0039 0.4431 0.8745);stroke-opacity:1;" stroke-width="3" stroke-linecap="round" stroke-linejoin="round"/>
</svg>
