<svg width="1212" height="477" viewBox="0 0 1212 477" fill="none" xmlns="http://www.w3.org/2000/svg">
<rect width="1212" height="477" rx="10" fill="#0171DF" style="fill:#0171DF;fill:color(display-p3 0.0039 0.4431 0.8745);fill-opacity:1;"/>
<path d="M61.3386 92.0543V234.706M61.3386 234.706L108.365 279.29M61.3386 234.706V374.098C61.3386 390.068 56.5518 405.671 47.5959 418.894L12 471.447M301.865 476L255.021 418.332M109.135 40.4569V165.461C109.135 180.684 115.003 195.322 125.517 206.33L333.183 423.747C344.749 435.856 351.203 451.957 351.203 468.703V476M155.39 1V125.937C155.39 143.172 161.93 159.765 173.69 172.364L382.292 395.877C393.029 407.381 399 422.531 399 438.267V476M206.271 372.113V476M206.271 372.113L155.39 323.875M206.271 372.113L255.021 418.332M155.39 323.875V476M155.39 323.875L108.365 279.29M108.365 279.29V407.541C108.365 425.47 103.109 443.006 93.2486 457.98L81.3825 476M255.021 418.332V476M12 136.064V372.113" stroke="white" stroke-opacity="0.1" style="stroke:white;stroke-opacity:0.1;" stroke-width="2.95847"/>
<path d="M878.446 92.0543V234.706M878.446 234.706L924.622 279.29M878.446 234.706V374.467C878.446 390.207 873.796 405.596 865.08 418.702L830 471.447M1114.62 476L1068.63 418.332M925.378 40.4569V165.774C925.378 180.81 931.103 195.283 941.39 206.251L1145.46 423.834C1156.77 435.899 1163.07 451.819 1163.07 468.359V476M970.797 1V126.294C970.797 143.315 977.176 159.718 988.676 172.267L1193.68 395.966C1204.18 407.424 1210 422.4 1210 437.941V476M1020.76 372.113V476M1020.76 372.113L970.797 323.875M1020.76 372.113L1068.63 418.332M970.797 323.875V476M970.797 323.875L924.622 279.29M924.622 279.29V407.958C924.622 425.626 919.518 442.919 909.924 457.756L898.127 476M1068.63 418.332V476M830 136.064V372.113" stroke="white" stroke-opacity="0.1" style="stroke:white;stroke-opacity:0.1;" stroke-width="2.95847"/>
</svg>
