<svg width="150" height="150" viewBox="0 0 150 150" fill="none" xmlns="http://www.w3.org/2000/svg">
<g clip-path="url(#clip0_240_29654)">
<rect width="150" height="150" rx="10" fill="white" style="fill:white;fill-opacity:1;"/>
<path d="M12.8283 99.5421C8.50745 99.7551 3.82477 103.052 3.82477 103.052L-45 141H34.3858C34.3858 141 84.5265 103.165 86.026 102.079C88.4012 100.36 93.118 99.4891 93.118 99.4891L90.8875 99.5421H12.8283Z" fill="white" stroke="#263238" style="fill:white;fill-opacity:1;stroke:#263238;stroke:color(display-p3 0.1490 0.1961 0.2196);stroke-opacity:1;" stroke-width="0.670007" stroke-miterlimit="10" stroke-linecap="round" stroke-linejoin="round"/>
<path d="M195.51 31.904H89.2434" stroke="#263238" style="stroke:#263238;stroke:color(display-p3 0.1490 0.1961 0.2196);stroke-opacity:1;" stroke-width="0.670007" stroke-miterlimit="10" stroke-linecap="round" stroke-linejoin="round"/>
<path d="M179.484 9C175.105 9 171.555 12.5443 171.555 16.9235V114.356C171.555 118.951 167.79 122.395 163.532 122.395C162.642 122.395 161.73 122.246 160.829 121.925L100.714 100.571C97.5063 99.4316 94.0946 99.2714 90.8879 100.018V16.9235C90.8879 14.7339 91.7784 12.7541 93.2102 11.3222C94.6427 9.88441 96.6272 9 98.8168 9H179.484Z" fill="white" style="fill:white;fill-opacity:1;"/>
<mask id="mask0_240_29654" style="mask-type:luminance" maskUnits="userSpaceOnUse" x="90" y="9" width="90" height="114">
<path d="M179.484 9C175.105 9 171.555 12.5443 171.555 16.9235V114.356C171.555 118.951 167.79 122.395 163.532 122.395C162.642 122.395 161.73 122.246 160.829 121.925L100.714 100.571C97.5063 99.4316 94.0946 99.2714 90.8879 100.018V16.9235C90.8879 14.7339 91.7784 12.7541 93.2102 11.3222C94.6427 9.88441 96.6272 9 98.8168 9H179.484Z" fill="white" style="fill:white;fill-opacity:1;"/>
</mask>
<g mask="url(#mask0_240_29654)">
<path d="M108.101 103.196L160.829 121.926C161.73 122.247 162.643 122.396 163.533 122.396C167.79 122.396 171.556 118.951 171.556 114.356V103.196H108.101Z" fill="#0171DF" style="fill:#0171DF;fill:color(display-p3 0.0039 0.4431 0.8745);fill-opacity:1;"/>
</g>
<mask id="mask1_240_29654" style="mask-type:luminance" maskUnits="userSpaceOnUse" x="90" y="9" width="90" height="114">
<path d="M179.484 9C175.105 9 171.555 12.5443 171.555 16.9235V114.356C171.555 118.951 167.79 122.395 163.532 122.395C162.642 122.395 161.73 122.246 160.829 121.925L100.714 100.571C97.5063 99.4316 94.0946 99.2714 90.8879 100.018V16.9235C90.8879 14.7339 91.7784 12.7541 93.2102 11.3222C94.6427 9.88441 96.6272 9 98.8168 9H179.484Z" fill="white" style="fill:white;fill-opacity:1;"/>
</mask>
<g mask="url(#mask1_240_29654)">
<path opacity="0.6" d="M108.101 103.196L160.829 121.926C161.73 122.247 162.643 122.396 163.533 122.396C167.79 122.396 171.556 118.951 171.556 114.356V103.196H108.101Z" fill="white" style="fill:white;fill-opacity:1;"/>
</g>
<mask id="mask2_240_29654" style="mask-type:luminance" maskUnits="userSpaceOnUse" x="90" y="9" width="90" height="114">
<path d="M179.484 9C175.105 9 171.555 12.5443 171.555 16.9235V114.356C171.555 118.951 167.79 122.395 163.532 122.395C162.642 122.395 161.73 122.246 160.829 121.925L100.714 100.571C97.5063 99.4316 94.0946 99.2714 90.8879 100.018V16.9235C90.8879 14.7339 91.7784 12.7541 93.2102 11.3222C94.6427 9.88441 96.6272 9 98.8168 9H179.484Z" fill="white" style="fill:white;fill-opacity:1;"/>
</mask>
<g mask="url(#mask2_240_29654)">
<path d="M108.101 116.029L160.829 134.759C161.73 135.08 162.643 135.229 163.533 135.229C167.79 135.229 171.556 131.784 171.556 127.189V116.029H108.101Z" fill="#0171DF" style="fill:#0171DF;fill:color(display-p3 0.0039 0.4431 0.8745);fill-opacity:1;"/>
</g>
<path d="M179.484 9C175.105 9 171.555 12.5443 171.555 16.9235V114.356C171.555 118.951 167.79 122.395 163.532 122.395C162.642 122.395 161.73 122.246 160.829 121.925L100.714 100.571C97.5063 99.4316 94.0946 99.2714 90.8879 100.018V16.9235C90.8879 14.7339 91.7784 12.7541 93.2102 11.3222C94.6427 9.88441 96.6272 9 98.8168 9H179.484V9Z" stroke="#263238" style="stroke:#263238;stroke:color(display-p3 0.1490 0.1961 0.2196);stroke-opacity:1;" stroke-width="0.670007" stroke-miterlimit="10" stroke-linecap="round" stroke-linejoin="round"/>
<path d="M94.3073 99.5428H90.887" stroke="#263238" style="stroke:#263238;stroke:color(display-p3 0.1490 0.1961 0.2196);stroke-opacity:1;" stroke-width="0.670007" stroke-miterlimit="10" stroke-linecap="round" stroke-linejoin="round"/>
<path d="M163.532 122.396H82.8638C81.9794 122.396 81.0669 122.246 80.1657 121.925L66.2383 117.028L83.5607 103.69C85.7174 101.871 88.2326 100.632 90.8872 100.018C94.0945 99.2718 97.5055 99.4319 100.713 100.571L160.828 121.925C161.73 122.246 162.642 122.396 163.532 122.396Z" fill="white" style="fill:white;fill-opacity:1;"/>
<mask id="mask3_240_29654" style="mask-type:luminance" maskUnits="userSpaceOnUse" x="66" y="99" width="98" height="24">
<path d="M163.532 122.396H82.8638C81.9794 122.396 81.0669 122.246 80.1657 121.925L66.2383 117.028L83.5607 103.69C85.7174 101.871 88.2326 100.632 90.8872 100.018C94.0945 99.2718 97.5055 99.4319 100.713 100.571L160.828 121.925C161.73 122.246 162.642 122.396 163.532 122.396Z" fill="white" style="fill:white;fill-opacity:1;"/>
</mask>
<g mask="url(#mask3_240_29654)">
<path d="M163.532 122.395H82.8639C81.9795 122.395 81.067 122.246 80.1658 121.925L65.3901 116.766L83.5607 103.689C85.7175 101.87 88.2327 100.631 90.8873 100.017C94.0946 99.2706 97.5056 99.4307 100.713 100.57L160.828 121.924C161.73 122.246 162.642 122.395 163.532 122.395Z" fill="#0171DF" style="fill:#0171DF;fill:color(display-p3 0.0039 0.4431 0.8745);fill-opacity:1;"/>
</g>
<mask id="mask4_240_29654" style="mask-type:luminance" maskUnits="userSpaceOnUse" x="66" y="99" width="98" height="24">
<path d="M163.532 122.396H82.8638C81.9794 122.396 81.0669 122.246 80.1657 121.925L66.2383 117.028L83.5607 103.69C85.7174 101.871 88.2326 100.632 90.8872 100.018C94.0945 99.2718 97.5055 99.4319 100.713 100.571L160.828 121.925C161.73 122.246 162.642 122.396 163.532 122.396Z" fill="white" style="fill:white;fill-opacity:1;"/>
</mask>
<g mask="url(#mask4_240_29654)">
<path opacity="0.2" d="M163.532 122.395H82.8639C81.9795 122.395 81.067 122.246 80.1658 121.925L65.3901 116.766L83.5607 103.689C85.7175 101.87 88.2327 100.631 90.8873 100.017C94.0946 99.2706 97.5056 99.4307 100.713 100.57L160.828 121.924C161.73 122.246 162.642 122.395 163.532 122.395Z" fill="black" style="fill:black;fill-opacity:1;"/>
</g>
<path d="M163.532 122.396H82.8638C81.9794 122.396 81.0669 122.246 80.1657 121.925L66.2383 117.028L83.5607 103.69C85.7174 101.871 88.2326 100.632 90.8872 100.018C94.0945 99.2718 97.5055 99.4319 100.713 100.571L160.828 121.925C161.73 122.246 162.642 122.396 163.532 122.396Z" stroke="#263238" style="stroke:#263238;stroke:color(display-p3 0.1490 0.1961 0.2196);stroke-opacity:1;" stroke-width="0.670007" stroke-miterlimit="10" stroke-linecap="round" stroke-linejoin="round"/>
<path d="M82.8641 122.396H82.6873" stroke="#263238" style="stroke:#263238;stroke:color(display-p3 0.1490 0.1961 0.2196);stroke-opacity:1;" stroke-width="0.670007" stroke-miterlimit="10" stroke-linecap="round" stroke-linejoin="round"/>
<g opacity="0.15">
<path d="M98.2932 22.6573V22.7973V26.1795V26.3189V29.7011V29.8411V33.2233V33.3633V36.7456V36.8856V40.2678V40.4071V43.7893V43.9294V47.3116V47.4516V50.8338V50.9731V54.3553V54.4954V57.8776V58.0176V61.5392H105.954V58.0176V57.8776V54.4954V54.3553V50.9731V50.8338V47.4516V47.3116V43.9294V43.7893V40.4071V40.2678V36.8856V36.7456V33.3633V33.2233V29.8411V29.7011V26.3189V26.1795V22.7973V22.6573V19.1351H98.2932V22.6573Z" fill="black" style="fill:black;fill-opacity:1;"/>
<path d="M158.677 19.1352H158.51H151.183H151.016H143.688H143.522H136.194H136.027H128.699H128.533H121.205H121.038H113.71H113.544H106.05V22.7975H113.544H113.71H121.038H121.205H128.533H128.699H136.027H136.194H143.522H143.688H151.016H151.183H158.51H158.677H166.171V19.1352H158.677Z" fill="black" style="fill:black;fill-opacity:1;"/>
</g>
<path d="M105.954 19.1351H98.2932V22.7967H105.954V19.1351Z" stroke="#263238" style="stroke:#263238;stroke:color(display-p3 0.1490 0.1961 0.2196);stroke-opacity:1;" stroke-width="0.167502" stroke-miterlimit="10" stroke-linecap="round" stroke-linejoin="round"/>
<path d="M105.954 22.6573H98.2932V26.3189H105.954V22.6573Z" stroke="#263238" style="stroke:#263238;stroke:color(display-p3 0.1490 0.1961 0.2196);stroke-opacity:1;" stroke-width="0.167502" stroke-miterlimit="10" stroke-linecap="round" stroke-linejoin="round"/>
<path d="M105.954 26.1793H98.2932V29.8409H105.954V26.1793Z" stroke="#263238" style="stroke:#263238;stroke:color(display-p3 0.1490 0.1961 0.2196);stroke-opacity:1;" stroke-width="0.167502" stroke-miterlimit="10" stroke-linecap="round" stroke-linejoin="round"/>
<path d="M105.954 29.7021H98.2932V33.3637H105.954V29.7021Z" stroke="#263238" style="stroke:#263238;stroke:color(display-p3 0.1490 0.1961 0.2196);stroke-opacity:1;" stroke-width="0.167502" stroke-miterlimit="10" stroke-linecap="round" stroke-linejoin="round"/>
<path d="M105.954 33.2241H98.2932V36.8856H105.954V33.2241Z" stroke="#263238" style="stroke:#263238;stroke:color(display-p3 0.1490 0.1961 0.2196);stroke-opacity:1;" stroke-width="0.167502" stroke-miterlimit="10" stroke-linecap="round" stroke-linejoin="round"/>
<path d="M105.954 36.746H98.2932V40.4076H105.954V36.746Z" stroke="#263238" style="stroke:#263238;stroke:color(display-p3 0.1490 0.1961 0.2196);stroke-opacity:1;" stroke-width="0.167502" stroke-miterlimit="10" stroke-linecap="round" stroke-linejoin="round"/>
<path d="M105.954 40.2681H98.2932V43.9297H105.954V40.2681Z" stroke="#263238" style="stroke:#263238;stroke:color(display-p3 0.1490 0.1961 0.2196);stroke-opacity:1;" stroke-width="0.167502" stroke-miterlimit="10" stroke-linecap="round" stroke-linejoin="round"/>
<path d="M105.954 43.7902H98.2932V47.4517H105.954V43.7902Z" stroke="#263238" style="stroke:#263238;stroke:color(display-p3 0.1490 0.1961 0.2196);stroke-opacity:1;" stroke-width="0.167502" stroke-miterlimit="10" stroke-linecap="round" stroke-linejoin="round"/>
<path d="M105.954 47.3115H98.2932V50.9731H105.954V47.3115Z" stroke="#263238" style="stroke:#263238;stroke:color(display-p3 0.1490 0.1961 0.2196);stroke-opacity:1;" stroke-width="0.167502" stroke-miterlimit="10" stroke-linecap="round" stroke-linejoin="round"/>
<path d="M105.954 50.8349H98.2932V54.4965H105.954V50.8349Z" stroke="#263238" style="stroke:#263238;stroke:color(display-p3 0.1490 0.1961 0.2196);stroke-opacity:1;" stroke-width="0.167502" stroke-miterlimit="10" stroke-linecap="round" stroke-linejoin="round"/>
<path d="M105.954 54.3555H98.2932V58.0171H105.954V54.3555Z" stroke="#263238" style="stroke:#263238;stroke:color(display-p3 0.1490 0.1961 0.2196);stroke-opacity:1;" stroke-width="0.167502" stroke-miterlimit="10" stroke-linecap="round" stroke-linejoin="round"/>
<path d="M105.954 57.8776H98.2932V61.5392H105.954V57.8776Z" stroke="#263238" style="stroke:#263238;stroke:color(display-p3 0.1490 0.1961 0.2196);stroke-opacity:1;" stroke-width="0.167502" stroke-miterlimit="10" stroke-linecap="round" stroke-linejoin="round"/>
<path d="M113.71 19.1352H106.05V22.7968H113.71V19.1352Z" stroke="#263238" style="stroke:#263238;stroke:color(display-p3 0.1490 0.1961 0.2196);stroke-opacity:1;" stroke-width="0.167502" stroke-miterlimit="10" stroke-linecap="round" stroke-linejoin="round"/>
<path d="M121.205 19.1352H113.544V22.7968H121.205V19.1352Z" stroke="#263238" style="stroke:#263238;stroke:color(display-p3 0.1490 0.1961 0.2196);stroke-opacity:1;" stroke-width="0.167502" stroke-miterlimit="10" stroke-linecap="round" stroke-linejoin="round"/>
<path d="M128.699 19.1352H121.038V22.7968H128.699V19.1352Z" stroke="#263238" style="stroke:#263238;stroke:color(display-p3 0.1490 0.1961 0.2196);stroke-opacity:1;" stroke-width="0.167502" stroke-miterlimit="10" stroke-linecap="round" stroke-linejoin="round"/>
<path d="M136.194 19.1352H128.533V22.7968H136.194V19.1352Z" stroke="#263238" style="stroke:#263238;stroke:color(display-p3 0.1490 0.1961 0.2196);stroke-opacity:1;" stroke-width="0.167502" stroke-miterlimit="10" stroke-linecap="round" stroke-linejoin="round"/>
<path d="M143.688 19.1352H136.027V22.7968H143.688V19.1352Z" stroke="#263238" style="stroke:#263238;stroke:color(display-p3 0.1490 0.1961 0.2196);stroke-opacity:1;" stroke-width="0.167502" stroke-miterlimit="10" stroke-linecap="round" stroke-linejoin="round"/>
<path d="M151.183 19.1352H143.522V22.7968H151.183V19.1352Z" stroke="#263238" style="stroke:#263238;stroke:color(display-p3 0.1490 0.1961 0.2196);stroke-opacity:1;" stroke-width="0.167502" stroke-miterlimit="10" stroke-linecap="round" stroke-linejoin="round"/>
<path d="M166.17 22.7983H105.954V61.5368H166.17V22.7983Z" stroke="#263238" style="stroke:#263238;stroke:color(display-p3 0.1490 0.1961 0.2196);stroke-opacity:1;" stroke-width="0.167502" stroke-miterlimit="10" stroke-linecap="round" stroke-linejoin="round"/>
<path d="M113.61 22.7983V61.5294" stroke="#263238" style="stroke:#263238;stroke:color(display-p3 0.1490 0.1961 0.2196);stroke-opacity:1;" stroke-width="0.167502" stroke-miterlimit="10" stroke-linecap="round" stroke-linejoin="round"/>
<path d="M121.107 22.7983V61.5294" stroke="#263238" style="stroke:#263238;stroke:color(display-p3 0.1490 0.1961 0.2196);stroke-opacity:1;" stroke-width="0.167502" stroke-miterlimit="10" stroke-linecap="round" stroke-linejoin="round"/>
<path d="M128.603 22.7983V61.5294" stroke="#263238" style="stroke:#263238;stroke:color(display-p3 0.1490 0.1961 0.2196);stroke-opacity:1;" stroke-width="0.167502" stroke-miterlimit="10" stroke-linecap="round" stroke-linejoin="round"/>
<path d="M136.099 22.7983V61.5294" stroke="#263238" style="stroke:#263238;stroke:color(display-p3 0.1490 0.1961 0.2196);stroke-opacity:1;" stroke-width="0.167502" stroke-miterlimit="10" stroke-linecap="round" stroke-linejoin="round"/>
<path d="M143.596 22.7983V61.5294" stroke="#263238" style="stroke:#263238;stroke:color(display-p3 0.1490 0.1961 0.2196);stroke-opacity:1;" stroke-width="0.167502" stroke-miterlimit="10" stroke-linecap="round" stroke-linejoin="round"/>
<path d="M105.954 26.3196H166.127" stroke="#263238" style="stroke:#263238;stroke:color(display-p3 0.1490 0.1961 0.2196);stroke-opacity:1;" stroke-width="0.167502" stroke-miterlimit="10" stroke-linecap="round" stroke-linejoin="round"/>
<path d="M105.954 29.8295H166.127" stroke="#263238" style="stroke:#263238;stroke:color(display-p3 0.1490 0.1961 0.2196);stroke-opacity:1;" stroke-width="0.167502" stroke-miterlimit="10" stroke-linecap="round" stroke-linejoin="round"/>
<path d="M105.954 33.3401H166.127" stroke="#263238" style="stroke:#263238;stroke:color(display-p3 0.1490 0.1961 0.2196);stroke-opacity:1;" stroke-width="0.167502" stroke-miterlimit="10" stroke-linecap="round" stroke-linejoin="round"/>
<path d="M105.954 36.85H166.127" stroke="#263238" style="stroke:#263238;stroke:color(display-p3 0.1490 0.1961 0.2196);stroke-opacity:1;" stroke-width="0.167502" stroke-miterlimit="10" stroke-linecap="round" stroke-linejoin="round"/>
<path d="M105.954 40.3597H166.127" stroke="#263238" style="stroke:#263238;stroke:color(display-p3 0.1490 0.1961 0.2196);stroke-opacity:1;" stroke-width="0.167502" stroke-miterlimit="10" stroke-linecap="round" stroke-linejoin="round"/>
<path d="M105.954 43.8696H166.127" stroke="#263238" style="stroke:#263238;stroke:color(display-p3 0.1490 0.1961 0.2196);stroke-opacity:1;" stroke-width="0.167502" stroke-miterlimit="10" stroke-linecap="round" stroke-linejoin="round"/>
<path d="M105.954 47.3809H166.127" stroke="#263238" style="stroke:#263238;stroke:color(display-p3 0.1490 0.1961 0.2196);stroke-opacity:1;" stroke-width="0.167502" stroke-miterlimit="10" stroke-linecap="round" stroke-linejoin="round"/>
<path d="M105.954 50.8907H166.127" stroke="#263238" style="stroke:#263238;stroke:color(display-p3 0.1490 0.1961 0.2196);stroke-opacity:1;" stroke-width="0.167502" stroke-miterlimit="10" stroke-linecap="round" stroke-linejoin="round"/>
<path d="M105.954 54.4006H166.127" stroke="#263238" style="stroke:#263238;stroke:color(display-p3 0.1490 0.1961 0.2196);stroke-opacity:1;" stroke-width="0.167502" stroke-miterlimit="10" stroke-linecap="round" stroke-linejoin="round"/>
<path d="M105.954 57.9113H166.127" stroke="#263238" style="stroke:#263238;stroke:color(display-p3 0.1490 0.1961 0.2196);stroke-opacity:1;" stroke-width="0.167502" stroke-miterlimit="10" stroke-linecap="round" stroke-linejoin="round"/>
<path d="M67.567 108.982H3.01245L7.47001 105.597H72.0245L67.567 108.982Z" fill="#0171DF" style="fill:#0171DF;fill:color(display-p3 0.0039 0.4431 0.8745);fill-opacity:1;"/>
<path d="M-31.1515 136.137H-32.7361L7.47039 105.597H9.05496L-31.1515 136.137Z" fill="#0171DF" style="fill:#0171DF;fill:color(display-p3 0.0039 0.4431 0.8745);fill-opacity:1;"/>
<path d="M53.3448 119.767H-11.2097L-6.16456 115.989H58.39L53.3448 119.767Z" fill="#263238" style="fill:#263238;fill:color(display-p3 0.1490 0.1961 0.2196);fill-opacity:1;"/>
<path d="M31.6127 136.294H-32.9419L7.47027 105.597H72.0248L31.6127 136.294Z" stroke="#263238" style="stroke:#263238;stroke:color(display-p3 0.1490 0.1961 0.2196);stroke-opacity:1;" stroke-width="0.167502" stroke-miterlimit="10" stroke-linecap="round" stroke-linejoin="round"/>
<path d="M14.1208 105.711L-26.1145 136.274" stroke="#263238" style="stroke:#263238;stroke:color(display-p3 0.1490 0.1961 0.2196);stroke-opacity:1;" stroke-width="0.167502" stroke-miterlimit="10" stroke-linecap="round" stroke-linejoin="round"/>
<path d="M20.6042 105.711L-19.6311 136.274" stroke="#263238" style="stroke:#263238;stroke:color(display-p3 0.1490 0.1961 0.2196);stroke-opacity:1;" stroke-width="0.167502" stroke-miterlimit="10" stroke-linecap="round" stroke-linejoin="round"/>
<path d="M27.0883 105.711L-13.147 136.274" stroke="#263238" style="stroke:#263238;stroke:color(display-p3 0.1490 0.1961 0.2196);stroke-opacity:1;" stroke-width="0.167502" stroke-miterlimit="10" stroke-linecap="round" stroke-linejoin="round"/>
<path d="M33.5714 105.711L-6.66455 136.274" stroke="#263238" style="stroke:#263238;stroke:color(display-p3 0.1490 0.1961 0.2196);stroke-opacity:1;" stroke-width="0.167502" stroke-miterlimit="10" stroke-linecap="round" stroke-linejoin="round"/>
<path d="M40.0546 105.711L-0.180664 136.274" stroke="#263238" style="stroke:#263238;stroke:color(display-p3 0.1490 0.1961 0.2196);stroke-opacity:1;" stroke-width="0.167502" stroke-miterlimit="10" stroke-linecap="round" stroke-linejoin="round"/>
<path d="M46.5387 105.711L6.30347 136.274" stroke="#263238" style="stroke:#263238;stroke:color(display-p3 0.1490 0.1961 0.2196);stroke-opacity:1;" stroke-width="0.167502" stroke-miterlimit="10" stroke-linecap="round" stroke-linejoin="round"/>
<path d="M53.0217 105.711L12.7864 136.274" stroke="#263238" style="stroke:#263238;stroke:color(display-p3 0.1490 0.1961 0.2196);stroke-opacity:1;" stroke-width="0.167502" stroke-miterlimit="10" stroke-linecap="round" stroke-linejoin="round"/>
<path d="M59.5057 105.711L19.2698 136.274" stroke="#263238" style="stroke:#263238;stroke:color(display-p3 0.1490 0.1961 0.2196);stroke-opacity:1;" stroke-width="0.167502" stroke-miterlimit="10" stroke-linecap="round" stroke-linejoin="round"/>
<path d="M65.9887 105.711L25.7534 136.274" stroke="#263238" style="stroke:#263238;stroke:color(display-p3 0.1490 0.1961 0.2196);stroke-opacity:1;" stroke-width="0.167502" stroke-miterlimit="10" stroke-linecap="round" stroke-linejoin="round"/>
<path d="M-0.941162 112.07H63.4197" stroke="#263238" style="stroke:#263238;stroke:color(display-p3 0.1490 0.1961 0.2196);stroke-opacity:1;" stroke-width="0.167502" stroke-miterlimit="10" stroke-linecap="round" stroke-linejoin="round"/>
<path d="M-6.0813 115.974H58.2796" stroke="#263238" style="stroke:#263238;stroke:color(display-p3 0.1490 0.1961 0.2196);stroke-opacity:1;" stroke-width="0.167502" stroke-miterlimit="10" stroke-linecap="round" stroke-linejoin="round"/>
<path d="M-11.2205 119.877H53.1404" stroke="#263238" style="stroke:#263238;stroke:color(display-p3 0.1490 0.1961 0.2196);stroke-opacity:1;" stroke-width="0.167502" stroke-miterlimit="10" stroke-linecap="round" stroke-linejoin="round"/>
<path d="M-16.3606 123.781H48.0003" stroke="#263238" style="stroke:#263238;stroke:color(display-p3 0.1490 0.1961 0.2196);stroke-opacity:1;" stroke-width="0.167502" stroke-miterlimit="10" stroke-linecap="round" stroke-linejoin="round"/>
<path d="M-21.4998 127.686H42.8611" stroke="#263238" style="stroke:#263238;stroke:color(display-p3 0.1490 0.1961 0.2196);stroke-opacity:1;" stroke-width="0.167502" stroke-miterlimit="10" stroke-linecap="round" stroke-linejoin="round"/>
<path d="M-26.6399 131.589H37.721" stroke="#263238" style="stroke:#263238;stroke:color(display-p3 0.1490 0.1961 0.2196);stroke-opacity:1;" stroke-width="0.167502" stroke-miterlimit="10" stroke-linecap="round" stroke-linejoin="round"/>
<path d="M166.271 64.4974H98.2324V66.9952H166.271V64.4974Z" fill="#0171DF" style="fill:#0171DF;fill:color(display-p3 0.0039 0.4431 0.8745);fill-opacity:1;"/>
<path d="M99.9028 64.4974H98.2324V96.6866H99.9028V64.4974Z" fill="#0171DF" style="fill:#0171DF;fill:color(display-p3 0.0039 0.4431 0.8745);fill-opacity:1;"/>
<path d="M166.271 64.4974H98.2324V96.8514H166.271V64.4974Z" stroke="#263238" style="stroke:#263238;stroke:color(display-p3 0.1490 0.1961 0.2196);stroke-opacity:1;" stroke-width="0.167502" stroke-miterlimit="10" stroke-linecap="round" stroke-linejoin="round"/>
<path d="M105.402 64.6194V96.832" stroke="#263238" style="stroke:#263238;stroke:color(display-p3 0.1490 0.1961 0.2196);stroke-opacity:1;" stroke-width="0.167502" stroke-miterlimit="10" stroke-linecap="round" stroke-linejoin="round"/>
<path d="M112.236 64.6194V96.832" stroke="#263238" style="stroke:#263238;stroke:color(display-p3 0.1490 0.1961 0.2196);stroke-opacity:1;" stroke-width="0.167502" stroke-miterlimit="10" stroke-linecap="round" stroke-linejoin="round"/>
<path d="M119.069 64.6194V96.832" stroke="#263238" style="stroke:#263238;stroke:color(display-p3 0.1490 0.1961 0.2196);stroke-opacity:1;" stroke-width="0.167502" stroke-miterlimit="10" stroke-linecap="round" stroke-linejoin="round"/>
<path d="M125.902 64.6194V96.832" stroke="#263238" style="stroke:#263238;stroke:color(display-p3 0.1490 0.1961 0.2196);stroke-opacity:1;" stroke-width="0.167502" stroke-miterlimit="10" stroke-linecap="round" stroke-linejoin="round"/>
<path d="M132.736 64.6194V96.832" stroke="#263238" style="stroke:#263238;stroke:color(display-p3 0.1490 0.1961 0.2196);stroke-opacity:1;" stroke-width="0.167502" stroke-miterlimit="10" stroke-linecap="round" stroke-linejoin="round"/>
<path d="M139.57 64.6194V96.832" stroke="#263238" style="stroke:#263238;stroke:color(display-p3 0.1490 0.1961 0.2196);stroke-opacity:1;" stroke-width="0.167502" stroke-miterlimit="10" stroke-linecap="round" stroke-linejoin="round"/>
<path d="M146.403 64.6194V96.832" stroke="#263238" style="stroke:#263238;stroke:color(display-p3 0.1490 0.1961 0.2196);stroke-opacity:1;" stroke-width="0.167502" stroke-miterlimit="10" stroke-linecap="round" stroke-linejoin="round"/>
<path d="M98.3479 71.3204H166.183" stroke="#263238" style="stroke:#263238;stroke:color(display-p3 0.1490 0.1961 0.2196);stroke-opacity:1;" stroke-width="0.167502" stroke-miterlimit="10" stroke-linecap="round" stroke-linejoin="round"/>
<path d="M98.3479 75.4347H166.183" stroke="#263238" style="stroke:#263238;stroke:color(display-p3 0.1490 0.1961 0.2196);stroke-opacity:1;" stroke-width="0.167502" stroke-miterlimit="10" stroke-linecap="round" stroke-linejoin="round"/>
<path d="M98.3479 79.5504H166.183" stroke="#263238" style="stroke:#263238;stroke:color(display-p3 0.1490 0.1961 0.2196);stroke-opacity:1;" stroke-width="0.167502" stroke-miterlimit="10" stroke-linecap="round" stroke-linejoin="round"/>
<path d="M98.3479 83.6647H166.183" stroke="#263238" style="stroke:#263238;stroke:color(display-p3 0.1490 0.1961 0.2196);stroke-opacity:1;" stroke-width="0.167502" stroke-miterlimit="10" stroke-linecap="round" stroke-linejoin="round"/>
<path d="M98.3479 87.7803H166.183" stroke="#263238" style="stroke:#263238;stroke:color(display-p3 0.1490 0.1961 0.2196);stroke-opacity:1;" stroke-width="0.167502" stroke-miterlimit="10" stroke-linecap="round" stroke-linejoin="round"/>
<path d="M98.3479 91.8947H166.183" stroke="#263238" style="stroke:#263238;stroke:color(display-p3 0.1490 0.1961 0.2196);stroke-opacity:1;" stroke-width="0.167502" stroke-miterlimit="10" stroke-linecap="round" stroke-linejoin="round"/>
<path d="M143.751 85.1484H140.914V91.7681H143.751V85.1484Z" fill="#263238" stroke="#263238" style="fill:#263238;fill:color(display-p3 0.1490 0.1961 0.2196);fill-opacity:1;stroke:#263238;stroke:color(display-p3 0.1490 0.1961 0.2196);stroke-opacity:1;" stroke-width="0.335004" stroke-miterlimit="10"/>
<path d="M148.289 81.1759H145.452V91.7667H148.289V81.1759Z" fill="#0171DF" stroke="#263238" style="fill:#0171DF;fill:color(display-p3 0.0039 0.4431 0.8745);fill-opacity:1;stroke:#263238;stroke:color(display-p3 0.1490 0.1961 0.2196);stroke-opacity:1;" stroke-width="0.335004" stroke-miterlimit="10"/>
<path d="M152.829 74.5573H149.992V91.7678H152.829V74.5573Z" fill="#263238" stroke="#263238" style="fill:#263238;fill:color(display-p3 0.1490 0.1961 0.2196);fill-opacity:1;stroke:#263238;stroke:color(display-p3 0.1490 0.1961 0.2196);stroke-opacity:1;" stroke-width="0.335004" stroke-miterlimit="10"/>
<path d="M114.567 83.8112V91.6771C110.223 91.6771 106.701 88.1555 106.701 83.8112C106.701 79.4669 110.223 75.9453 114.567 75.9453V83.8112Z" fill="#0171DF" stroke="#263238" style="fill:#0171DF;fill:color(display-p3 0.0039 0.4431 0.8745);fill-opacity:1;stroke:#263238;stroke:color(display-p3 0.1490 0.1961 0.2196);stroke-opacity:1;" stroke-width="0.335004" stroke-miterlimit="10"/>
<path d="M114.567 83.8116L122.047 81.3808C123.39 85.5121 121.129 89.9495 116.997 91.2922C116.171 91.5609 115.436 91.6768 114.567 91.6768V83.8116Z" fill="white" stroke="#263238" style="fill:white;fill-opacity:1;stroke:#263238;stroke:color(display-p3 0.1490 0.1961 0.2196);stroke-opacity:1;" stroke-width="0.335004" stroke-miterlimit="10"/>
<path d="M114.567 83.8111V75.9452C118.042 75.9452 120.973 78.0751 122.047 81.3803L114.567 83.8111Z" fill="#263238" stroke="#263238" style="fill:#263238;fill:color(display-p3 0.1490 0.1961 0.2196);fill-opacity:1;stroke:#263238;stroke:color(display-p3 0.1490 0.1961 0.2196);stroke-opacity:1;" stroke-width="0.335004" stroke-miterlimit="10"/>
</g>
<defs>
<clipPath id="clip0_240_29654">
<rect width="150" height="150" rx="10" fill="white" style="fill:white;fill-opacity:1;"/>
</clipPath>
</defs>
</svg>
