<svg width="40" height="40" viewBox="0 0 40 40" fill="none" xmlns="http://www.w3.org/2000/svg">
<rect width="40" height="40" rx="5" fill="#0171DF" style="fill:#0171DF;fill:color(display-p3 0.0039 0.4431 0.8745);fill-opacity:1;"/>
<rect x="0.5" y="0.5" width="39" height="39" rx="4.5" stroke="black" stroke-opacity="0.05" style="stroke:black;stroke-opacity:0.05;"/>
<path d="M23.668 8.10799C23.6165 8.06673 23.5574 8.03606 23.4941 8.01775C23.4307 7.99943 23.3644 7.99383 23.2989 8.00127C23.2333 8.0087 23.1699 8.02903 23.1123 8.06108C23.0546 8.09312 23.0039 8.13625 22.963 8.18799L18.36 14H15.809L21.396 6.94599C21.6005 6.68775 21.854 6.47246 22.1419 6.3125C22.4299 6.15255 22.7466 6.05106 23.0739 6.01389C23.4011 5.97672 23.7325 6.0046 24.049 6.09591C24.3655 6.18722 24.6608 6.34018 24.918 6.54599L30.065 10.669C30.5517 11.0589 30.875 11.6167 30.9716 12.2328C31.0682 12.8489 30.931 13.4788 30.587 13.999H27.973L28.88 12.947C28.9239 12.8961 28.9571 12.8369 28.9776 12.7729C28.9981 12.7089 29.0055 12.6414 28.9994 12.5745C28.9932 12.5075 28.9736 12.4425 28.9418 12.3833C28.9099 12.3242 28.8665 12.272 28.814 12.23L26.31 10.224L23.342 14H20.798L24.748 8.97399L23.668 8.10799ZM10 11C9.20435 11 8.44129 11.3161 7.87868 11.8787C7.31607 12.4413 7 13.2043 7 14V28.5C7 29.6935 7.47411 30.8381 8.31802 31.682C9.16193 32.5259 10.3065 33 11.5 33H28.5C29.6935 33 30.8381 32.5259 31.682 31.682C32.5259 30.8381 33 29.6935 33 28.5V19.5C33 18.3065 32.5259 17.1619 31.682 16.318C30.8381 15.4741 29.6935 15 28.5 15H10C9.73478 15 9.48043 14.8946 9.29289 14.7071C9.10536 14.5196 9 14.2652 9 14C9 13.7348 9.10536 13.4804 9.29289 13.2929C9.48043 13.1053 9.73478 13 10 13H14.58L16.176 11H10ZM25 23H28C28.2652 23 28.5196 23.1053 28.7071 23.2929C28.8946 23.4804 29 23.7348 29 24C29 24.2652 28.8946 24.5196 28.7071 24.7071C28.5196 24.8946 28.2652 25 28 25H25C24.7348 25 24.4804 24.8946 24.2929 24.7071C24.1054 24.5196 24 24.2652 24 24C24 23.7348 24.1054 23.4804 24.2929 23.2929C24.4804 23.1053 24.7348 23 25 23Z" fill="white" style="fill:white;fill-opacity:1;"/>
</svg>
