<svg width="40" height="40" viewBox="0 0 40 40" fill="none" xmlns="http://www.w3.org/2000/svg">
<rect width="40" height="40" rx="5" fill="#0171DF" style="fill:#0171DF;fill:color(display-p3 0.0039 0.4431 0.8745);fill-opacity:1;"/>
<rect x="0.5" y="0.5" width="39" height="39" rx="4.5" stroke="black" stroke-opacity="0.05" style="stroke:black;stroke-opacity:0.05;"/>
<path d="M20 10.4C18.7269 10.4 17.506 10.9057 16.6059 11.8059C15.7057 12.7061 15.2 13.927 15.2 15.2C15.2 16.4731 15.7057 17.694 16.6059 18.5941C17.506 19.4943 18.7269 20 20 20C21.273 20 22.4939 19.4943 23.3941 18.5941C24.2943 17.694 24.8 16.4731 24.8 15.2C24.8 13.927 24.2943 12.7061 23.3941 11.8059C22.4939 10.9057 21.273 10.4 20 10.4ZM25.838 28.1564C24.5528 28.976 22.8932 29.4332 21.0836 29.5616C20.9932 29.3234 20.8534 29.107 20.6732 28.9268L18.2732 26.528C18.6202 25.801 18.8002 25.0056 18.8 24.2C18.8001 23.1321 18.4836 22.0881 17.8904 21.2H26C26.6365 21.2 27.2469 21.4529 27.697 21.903C28.1471 22.3531 28.4 22.9635 28.4 23.6C28.4 25.6292 27.4004 27.1592 25.838 28.1564ZM13.4 28.4C14.3432 28.4 15.2144 28.088 15.9152 27.5636L18.9752 30.6236C19.0309 30.6794 19.097 30.7237 19.1698 30.7539C19.2427 30.7841 19.3207 30.7997 19.3995 30.7998C19.4784 30.7998 19.5565 30.7843 19.6293 30.7542C19.7022 30.7241 19.7684 30.6799 19.8242 30.6242C19.88 30.5685 19.9242 30.5024 19.9544 30.4296C19.9847 30.3567 20.0002 30.2787 20.0003 30.1998C20.0004 30.121 19.9849 30.0429 19.9548 29.9701C19.9247 29.8972 19.8805 29.831 19.8248 29.7752L16.7648 26.7152C17.3312 25.9578 17.6253 25.0313 17.5996 24.0858C17.5739 23.1403 17.2298 22.2312 16.623 21.5057C16.0163 20.7801 15.1824 20.2806 14.2564 20.088C13.3304 19.8954 12.3665 20.021 11.5207 20.4445C10.675 20.868 9.99697 21.5645 9.59641 22.4213C9.19586 23.2781 9.09623 24.2451 9.31367 25.1656C9.5311 26.0861 10.0529 26.9062 10.7945 27.4932C11.5361 28.0802 12.4541 28.3998 13.4 28.4ZM13.4 27.2C12.6043 27.2 11.8413 26.884 11.2787 26.3213C10.716 25.7587 10.4 24.9957 10.4 24.2C10.4 23.4044 10.716 22.6413 11.2787 22.0787C11.8413 21.5161 12.6043 21.2 13.4 21.2C14.1956 21.2 14.9587 21.5161 15.5213 22.0787C16.0839 22.6413 16.4 23.4044 16.4 24.2C16.4 24.9957 16.0839 25.7587 15.5213 26.3213C14.9587 26.884 14.1956 27.2 13.4 27.2Z" fill="white" style="fill:white;fill-opacity:1;"/>
</svg>
