<svg width="40" height="40" viewBox="0 0 40 40" fill="none" xmlns="http://www.w3.org/2000/svg">
<path d="M0 5C0 2.23858 2.23858 0 5 0H35C37.7614 0 40 2.23858 40 5V35C40 37.7614 37.7614 40 35 40H5C2.23858 40 0 37.7614 0 35V5Z" fill="#FFCF21" style="fill:#FFCF21;fill:color(display-p3 1.0000 0.8118 0.1294);fill-opacity:1;"/>
<path d="M5 0.5H35C37.4853 0.5 39.5 2.51472 39.5 5V35C39.5 37.4853 37.4853 39.5 35 39.5H5C2.51472 39.5 0.5 37.4853 0.5 35V5C0.5 2.51472 2.51472 0.5 5 0.5Z" stroke="black" stroke-opacity="0.05" style="stroke:black;stroke-opacity:0.05;"/>
<path d="M22 24C22 23.7348 22.1054 23.4804 22.2929 23.2929C22.4804 23.1053 22.7348 23 23 23H28C28.2652 23 28.5196 23.1053 28.7071 23.2929C28.8946 23.4804 29 23.7348 29 24V28C29 28.2652 28.8946 28.5195 28.7071 28.7071C28.5196 28.8946 28.2652 29 28 29H23C22.7348 29 22.4804 28.8946 22.2929 28.7071C22.1054 28.5195 22 28.2652 22 28V24ZM31 25.5C31 25.3674 30.9473 25.2402 30.8536 25.1464C30.7598 25.0526 30.6326 25 30.5 25C30.3674 25 30.2402 25.0526 30.1465 25.1464C30.0527 25.2402 30 25.3674 30 25.5V28.5C30 28.8978 29.842 29.2793 29.5607 29.5606C29.2794 29.8419 28.8978 30 28.5 30H24.5C24.3674 30 24.2402 30.0526 24.1464 30.1464C24.0527 30.2402 24 30.3674 24 30.5C24 30.6326 24.0527 30.7598 24.1464 30.8535C24.2402 30.9473 24.3674 31 24.5 31H28.5C29.163 31 29.7989 30.7366 30.2678 30.2677C30.7366 29.7989 31 29.163 31 28.5V25.5ZM25.53 11.22C25.4613 11.1463 25.3785 11.0872 25.2865 11.0462C25.1945 11.0052 25.0952 10.9832 24.9945 10.9814C24.8938 10.9796 24.7938 10.9981 24.7004 11.0358C24.607 11.0736 24.5222 11.1297 24.451 11.2009C24.3797 11.2722 24.3236 11.357 24.2859 11.4504C24.2482 11.5438 24.2296 11.6438 24.2314 11.7445C24.2332 11.8452 24.2552 11.9445 24.2962 12.0365C24.3372 12.1285 24.3963 12.2113 24.47 12.28L27.44 15.25H22.5C21.638 15.25 20.8114 15.5924 20.2019 16.2019C19.5924 16.8114 19.25 17.638 19.25 18.5V21.5C19.2503 21.8912 19.1194 22.2713 18.8783 22.5794C18.6372 22.8876 18.2998 23.1061 17.92 23.2C17.7205 22.2298 17.1682 21.368 16.37 20.7816C15.5718 20.1951 14.5844 19.9255 13.5989 20.0251C12.6134 20.1246 11.6999 20.5862 11.0351 21.3204C10.3703 22.0547 10.0015 23.0095 10 24C9.99929 24.9987 10.3722 25.9615 11.0454 26.6992C11.7186 27.4369 12.6434 27.896 13.638 27.9864C14.6326 28.0768 15.6251 27.7918 16.4202 27.1875C17.2154 26.5833 17.7557 25.7034 17.935 24.721C18.7146 24.6157 19.4295 24.2312 19.9471 23.6389C20.4648 23.0466 20.7501 22.2866 20.75 21.5V18.5C20.75 17.534 21.534 16.75 22.5 16.75H27.44L24.47 19.72C24.3963 19.7886 24.3372 19.8714 24.2962 19.9634C24.2552 20.0554 24.2332 20.1547 24.2314 20.2554C24.2296 20.3562 24.2482 20.4562 24.2859 20.5496C24.3236 20.643 24.3797 20.7278 24.451 20.799C24.5222 20.8702 24.607 20.9264 24.7004 20.9641C24.7938 21.0018 24.8938 21.0203 24.9945 21.0186C25.0952 21.0168 25.1945 20.9947 25.2865 20.9538C25.3785 20.9128 25.4613 20.8537 25.53 20.78L29.78 16.53C29.9205 16.3893 29.9993 16.1987 29.9993 16C29.9993 15.8012 29.9205 15.6106 29.78 15.47L25.53 11.22ZM11.5 24C11.5 23.3369 11.7634 22.701 12.2322 22.2322C12.7011 21.7634 13.337 21.5 14 21.5C14.663 21.5 15.2989 21.7634 15.7678 22.2322C16.2366 22.701 16.5 23.3369 16.5 24C16.5 24.663 16.2366 25.2989 15.7678 25.7677C15.2989 26.2366 14.663 26.5 14 26.5C13.337 26.5 12.7011 26.2366 12.2322 25.7677C11.7634 25.2989 11.5 24.663 11.5 24Z" fill="black" style="fill:black;fill-opacity:1;"/>
</svg>
