<svg width="40" height="40" viewBox="0 0 40 40" fill="none" xmlns="http://www.w3.org/2000/svg">
<rect width="40" height="40" rx="5" fill="#0171DF" style="fill:#0171DF;fill:color(display-p3 0.0039 0.4431 0.8745);fill-opacity:1;"/>
<rect x="0.5" y="0.5" width="39" height="39" rx="4.5" stroke="black" stroke-opacity="0.05" style="stroke:black;stroke-opacity:0.05;"/>
<path d="M20.858 22.273L28.292 29.707C28.4806 29.8891 28.7332 29.9899 28.9954 29.9876C29.2576 29.9854 29.5084 29.8802 29.6938 29.6948C29.8792 29.5094 29.9844 29.2586 29.9866 28.9964C29.9889 28.7342 29.8881 28.4816 29.706 28.293L11.707 10.293C11.6147 10.1974 11.5044 10.1213 11.3824 10.0689C11.2604 10.0164 11.1291 9.98886 10.9964 9.98771C10.8636 9.98655 10.7319 10.0119 10.609 10.0621C10.4861 10.1124 10.3745 10.1867 10.2806 10.2806C10.1867 10.3745 10.1124 10.4861 10.0621 10.609C10.0119 10.7319 9.98655 10.8636 9.98771 10.9964C9.98886 11.1291 10.0164 11.2604 10.0689 11.3824C10.1213 11.5044 10.1974 11.6147 10.293 11.707L13.39 14.804C12.747 15.233 12.136 15.731 11.569 16.299C11.0571 16.818 10.5919 17.3812 10.179 17.982C10.1041 18.0899 10.0512 18.2115 10.0234 18.3399C9.99555 18.4683 9.99327 18.6009 10.0167 18.7302C10.0639 18.9912 10.213 19.2228 10.431 19.374C10.5389 19.4488 10.6605 19.5017 10.7889 19.5295C10.9173 19.5574 11.0499 19.5597 11.1791 19.5363C11.4402 19.489 11.6718 19.34 11.823 19.122C12.186 18.598 12.584 18.112 12.983 17.712C13.5415 17.1538 14.1642 16.6637 14.838 16.252L15.99 17.405C14.6164 18.1949 13.5032 19.3685 12.787 20.782C12.6741 21.0177 12.658 21.2883 12.7421 21.5358C12.8263 21.7833 13.0041 21.988 13.2373 22.1061C13.4705 22.2241 13.7407 22.2461 13.99 22.1674C14.2393 22.0887 14.4478 21.9155 14.571 21.685C14.8633 21.1071 15.2457 20.5795 15.704 20.122C16.2159 19.6087 16.8153 19.1908 17.474 18.888L18.881 20.295C17.9163 20.5118 17.0335 20.9992 16.336 21.7C15.8763 22.1654 15.5067 22.712 15.246 23.312C15.1433 23.5543 15.1403 23.8273 15.2376 24.0718C15.3349 24.3162 15.5247 24.5125 15.7657 24.6181C16.0068 24.7236 16.2797 24.7299 16.5254 24.6355C16.771 24.5411 16.9696 24.3537 17.078 24.114C17.245 23.733 17.472 23.392 17.75 23.114C18.1492 22.7142 18.6463 22.4262 19.1917 22.2786C19.7371 22.131 20.3116 22.1291 20.858 22.273ZM19.526 16.343L21.754 18.572C22.7428 18.8595 23.6428 19.3928 24.37 20.122C24.8275 20.5882 25.2109 21.1217 25.507 21.704C25.5651 21.8236 25.6466 21.9305 25.7466 22.0182C25.8466 22.106 25.9631 22.1729 26.0893 22.2151C26.2154 22.2573 26.3488 22.2739 26.4814 22.2639C26.6141 22.2539 26.7435 22.2175 26.8619 22.1569C26.9803 22.0963 27.0855 22.0126 27.1712 21.9109C27.2569 21.8091 27.3214 21.6913 27.361 21.5642C27.4006 21.4372 27.4144 21.3036 27.4017 21.1711C27.389 21.0387 27.35 20.9101 27.287 20.793C26.8959 20.025 26.389 19.3217 25.784 18.708C24.9695 17.8908 23.9898 17.2571 22.9105 16.8492C21.8313 16.4413 20.6773 16.2687 19.526 16.343ZM16.51 13.327L18.161 14.978C20.053 14.6204 22.0082 14.8224 23.7872 15.5591C25.5662 16.2959 27.0917 17.5354 28.177 19.126C28.2511 19.235 28.3462 19.3283 28.4565 19.4005C28.5669 19.4727 28.6905 19.5224 28.8202 19.5466C28.9498 19.5708 29.083 19.5692 29.212 19.5417C29.341 19.5142 29.4633 19.4615 29.5719 19.3866C29.6804 19.3117 29.7731 19.216 29.8445 19.1052C29.9159 18.9943 29.9647 18.8704 29.9881 18.7405C30.0114 18.6107 30.0088 18.4776 29.9805 18.3488C29.9522 18.2199 29.8986 18.098 29.823 17.99C28.39 15.8959 26.3258 14.3143 23.931 13.4755C21.5363 12.6368 18.9363 12.5847 16.51 13.327ZM21.062 24.441C21.2014 24.5804 21.3119 24.7458 21.3874 24.928C21.4628 25.1101 21.5016 25.3053 21.5016 25.5025C21.5016 25.6996 21.4628 25.8948 21.3874 26.0769C21.3119 26.2591 21.2014 26.4246 21.062 26.564C20.9226 26.7034 20.7571 26.8139 20.5749 26.8894C20.3928 26.9648 20.1976 27.0036 20.0005 27.0036C19.8033 27.0036 19.6081 26.9648 19.426 26.8894C19.2438 26.8139 19.0784 26.7034 18.939 26.564C18.6574 26.2824 18.4993 25.9006 18.4993 25.5025C18.4993 25.1043 18.6574 24.7225 18.939 24.441C19.2205 24.1594 19.6023 24.0013 20.0005 24.0013C20.3986 24.0013 20.7804 24.1594 21.062 24.441Z" fill="white" style="fill:white;fill-opacity:1;"/>
</svg>
