<svg width="40" height="40" viewBox="0 0 40 40" fill="none" xmlns="http://www.w3.org/2000/svg">
<rect width="40" height="40" rx="5" fill="#FFCF21" style="fill:#FFCF21;fill:color(display-p3 1.0000 0.8118 0.1294);fill-opacity:1;"/>
<rect x="0.5" y="0.5" width="39" height="39" rx="4.5" stroke="black" stroke-opacity="0.05" style="stroke:black;stroke-opacity:0.05;"/>
<path d="M20.8581 22.273L28.2921 29.707C28.4807 29.8891 28.7333 29.9899 28.9955 29.9876C29.2577 29.9854 29.5085 29.8802 29.6939 29.6948C29.8793 29.5094 29.9845 29.2586 29.9868 28.9964C29.989 28.7342 29.8882 28.4816 29.7061 28.293L11.7071 10.293C11.6148 10.1974 11.5045 10.1213 11.3825 10.0689C11.2605 10.0164 11.1293 9.98886 10.9965 9.98771C10.8637 9.98655 10.732 10.0119 10.6091 10.0621C10.4862 10.1124 10.3746 10.1867 10.2807 10.2806C10.1868 10.3745 10.1125 10.4861 10.0623 10.609C10.012 10.7319 9.98668 10.8636 9.98783 10.9964C9.98898 11.1291 10.0166 11.2604 10.069 11.3824C10.1214 11.5044 10.1976 11.6147 10.2931 11.707L13.3901 14.804C12.7471 15.233 12.1361 15.731 11.5691 16.299C11.0572 16.818 10.592 17.3812 10.1791 17.982C10.1042 18.0899 10.0514 18.2115 10.0235 18.3399C9.99568 18.4683 9.99339 18.6009 10.0168 18.7302C10.064 18.9912 10.2131 19.2228 10.4311 19.374C10.539 19.4488 10.6607 19.5017 10.789 19.5295C10.9174 19.5574 11.05 19.5597 11.1793 19.5363C11.4403 19.489 11.6719 19.34 11.8231 19.122C12.1861 18.598 12.5841 18.112 12.9831 17.712C13.5416 17.1538 14.1643 16.6637 14.8381 16.252L15.9901 17.405C14.6165 18.1949 13.5033 19.3685 12.7871 20.782C12.6742 21.0177 12.6581 21.2883 12.7423 21.5358C12.8264 21.7833 13.0042 21.988 13.2374 22.1061C13.4706 22.2241 13.7408 22.2461 13.9901 22.1674C14.2394 22.0887 14.4479 21.9155 14.5711 21.685C14.8634 21.1071 15.2458 20.5795 15.7041 20.122C16.2161 19.6087 16.8154 19.1908 17.4741 18.888L18.8811 20.295C17.9164 20.5118 17.0336 20.9992 16.3361 21.7C15.8764 22.1654 15.5068 22.712 15.2461 23.312C15.1434 23.5543 15.1404 23.8273 15.2377 24.0718C15.335 24.3162 15.5248 24.5125 15.7658 24.6181C16.0069 24.7236 16.2798 24.7299 16.5255 24.6355C16.7711 24.5411 16.9697 24.3537 17.0781 24.114C17.2451 23.733 17.4721 23.392 17.7501 23.114C18.1493 22.7142 18.6465 22.4262 19.1918 22.2786C19.7372 22.131 20.3117 22.1291 20.8581 22.273ZM19.5261 16.343L21.7541 18.572C22.7429 18.8595 23.6429 19.3928 24.3701 20.122C24.8276 20.5882 25.211 21.1217 25.5071 21.704C25.5653 21.8236 25.6467 21.9305 25.7467 22.0182C25.8467 22.106 25.9632 22.1729 26.0894 22.2151C26.2156 22.2573 26.3489 22.2739 26.4816 22.2639C26.6142 22.2539 26.7436 22.2175 26.862 22.1569C26.9804 22.0963 27.0856 22.0126 27.1713 21.9109C27.257 21.8091 27.3215 21.6913 27.3611 21.5642C27.4007 21.4372 27.4146 21.3036 27.4018 21.1711C27.3891 21.0387 27.3501 20.9101 27.2871 20.793C26.896 20.025 26.3891 19.3217 25.7841 18.708C24.9696 17.8908 23.9899 17.2571 22.9106 16.8492C21.8314 16.4413 20.6774 16.2687 19.5261 16.343ZM16.5101 13.327L18.1611 14.978C20.0531 14.6204 22.0083 14.8224 23.7873 15.5591C25.5663 16.2959 27.0918 17.5354 28.1771 19.126C28.2513 19.235 28.3463 19.3283 28.4567 19.4005C28.5671 19.4727 28.6906 19.5224 28.8203 19.5466C28.9499 19.5708 29.0831 19.5692 29.2121 19.5417C29.3411 19.5142 29.4634 19.4615 29.572 19.3866C29.6805 19.3117 29.7732 19.216 29.8446 19.1052C29.9161 18.9943 29.9649 18.8704 29.9882 18.7405C30.0115 18.6107 30.009 18.4776 29.9806 18.3488C29.9523 18.2199 29.8987 18.098 29.8231 17.99C28.3901 15.8959 26.3259 14.3143 23.9312 13.4755C21.5365 12.6368 18.9364 12.5847 16.5101 13.327ZM21.0621 24.441C21.2015 24.5804 21.3121 24.7458 21.3875 24.928C21.4629 25.1101 21.5018 25.3053 21.5018 25.5025C21.5018 25.6996 21.4629 25.8948 21.3875 26.0769C21.3121 26.2591 21.2015 26.4246 21.0621 26.564C20.9227 26.7034 20.7572 26.8139 20.5751 26.8894C20.3929 26.9648 20.1977 27.0036 20.0006 27.0036C19.8034 27.0036 19.6082 26.9648 19.4261 26.8894C19.244 26.8139 19.0785 26.7034 18.9391 26.564C18.6576 26.2824 18.4994 25.9006 18.4994 25.5025C18.4994 25.1043 18.6576 24.7225 18.9391 24.441C19.2206 24.1594 19.6024 24.0013 20.0006 24.0013C20.3987 24.0013 20.7806 24.1594 21.0621 24.441Z" fill="black" style="fill:black;fill-opacity:1;"/>
</svg>
