<svg width="40" height="40" viewBox="0 0 40 40" fill="none" xmlns="http://www.w3.org/2000/svg">
<path d="M0 5C0 2.23858 2.23858 0 5 0H35C37.7614 0 40 2.23858 40 5V35C40 37.7614 37.7614 40 35 40H5C2.23858 40 0 37.7614 0 35V5Z" fill="#FFCF21" style="fill:#FFCF21;fill:color(display-p3 1.0000 0.8118 0.1294);fill-opacity:1;"/>
<path d="M5 0.5H35C37.4853 0.5 39.5 2.51472 39.5 5V35C39.5 37.4853 37.4853 39.5 35 39.5H5C2.51472 39.5 0.5 37.4853 0.5 35V5C0.5 2.51472 2.51472 0.5 5 0.5Z" stroke="black" stroke-opacity="0.05" style="stroke:black;stroke-opacity:0.05;"/>
<path d="M15.1999 17.6V22.4H10.3999V17.6H15.1999ZM10.5751 28.2248C10.5194 28.169 10.4753 28.1027 10.4452 28.0298C10.4152 27.9569 10.3998 27.8788 10.3999 27.8V23.6H15.1999V26C15.1999 26.6365 14.947 27.2469 14.497 27.697C14.0469 28.1471 13.4364 28.4 12.7999 28.4H10.9999C10.9211 28.4001 10.843 28.3847 10.7701 28.3547C10.6972 28.3246 10.6309 28.2805 10.5751 28.2248ZM10.9999 11.6H12.7999C13.4364 11.6 14.0469 11.8528 14.497 12.3029C14.947 12.753 15.1999 13.3635 15.1999 14V16.4H10.3999V12.2C10.3999 12.0408 10.4631 11.8882 10.5756 11.7757C10.6882 11.6632 10.8408 11.6 10.9999 11.6ZM29.5999 15.8V20H24.7999V17.6C24.8018 16.964 25.0553 16.3547 25.5049 15.905C25.9546 15.4553 26.564 15.2019 27.1999 15.2H28.9999C29.159 15.2 29.3116 15.2632 29.4242 15.3757C29.5367 15.4882 29.5999 15.6408 29.5999 15.8ZM29.5999 25.4V21.2H24.7999V23.6C24.8018 24.2359 25.0553 24.8453 25.5049 25.2949C25.9546 25.7446 26.564 25.9981 27.1999 26H28.9999C29.159 26 29.3116 25.9368 29.4242 25.8242C29.5367 25.7117 29.5999 25.5591 29.5999 25.4ZM20.1751 21.3752C20.1193 21.431 20.0751 21.4972 20.0449 21.5701C20.0147 21.643 19.9991 21.7211 19.9991 21.8C19.9991 21.8789 20.0147 21.957 20.0449 22.0299C20.0751 22.1028 20.1193 22.169 20.1751 22.2248C20.2309 22.2806 20.2971 22.3248 20.37 22.355C20.4429 22.3852 20.521 22.4007 20.5999 22.4007C20.6788 22.4007 20.7569 22.3852 20.8298 22.355C20.9027 22.3248 20.9689 22.2806 21.0247 22.2248L22.8247 20.4248C22.8806 20.369 22.9249 20.3028 22.9552 20.2299C22.9854 20.157 23.001 20.0789 23.001 20C23.001 19.9211 22.9854 19.8429 22.9552 19.77C22.9249 19.6971 22.8806 19.6309 22.8247 19.5752L21.0247 17.7752C20.9689 17.7194 20.9027 17.6751 20.8298 17.6449C20.7569 17.6148 20.6788 17.5992 20.5999 17.5992C20.521 17.5992 20.4429 17.6148 20.37 17.6449C20.2971 17.6751 20.2309 17.7194 20.1751 17.7752C20.1193 17.831 20.0751 17.8972 20.0449 17.9701C20.0147 18.043 19.9991 18.1211 19.9991 18.2C19.9991 18.2789 20.0147 18.357 20.0449 18.4299C20.0751 18.5028 20.1193 18.569 20.1751 18.6248L20.9515 19.4H17.5999C17.4408 19.4 17.2882 19.4632 17.1756 19.5757C17.0631 19.6882 16.9999 19.8408 16.9999 20C16.9999 20.1591 17.0631 20.3117 17.1756 20.4242C17.2882 20.5368 17.4408 20.6 17.5999 20.6H20.9515L20.1751 21.3752Z" fill="black" style="fill:black;fill-opacity:1;"/>
</svg>
