<svg width="40" height="40" viewBox="0 0 40 40" fill="none" xmlns="http://www.w3.org/2000/svg">
<rect width="40" height="40" rx="5" fill="#0171DF" style="fill:#0171DF;fill:color(display-p3 0.0039 0.4431 0.8745);fill-opacity:1;"/>
<rect x="0.5" y="0.5" width="39" height="39" rx="4.5" stroke="black" stroke-opacity="0.05" style="stroke:black;stroke-opacity:0.05;"/>
<path d="M15.2 17.6V22.4H10.4V17.6H15.2ZM10.5752 28.2248C10.5195 28.169 10.4754 28.1027 10.4453 28.0298C10.4153 27.9569 10.3999 27.8788 10.4 27.8V23.6H15.2V26C15.2 26.6365 14.9472 27.2469 14.4971 27.697C14.047 28.1471 13.4365 28.4 12.8 28.4H11C10.9212 28.4001 10.8431 28.3847 10.7702 28.3547C10.6973 28.3246 10.631 28.2805 10.5752 28.2248ZM11 11.6H12.8C13.4365 11.6 14.047 11.8528 14.4971 12.3029C14.9472 12.753 15.2 13.3635 15.2 14V16.4H10.4V12.2C10.4 12.0408 10.4632 11.8882 10.5758 11.7757C10.6883 11.6632 10.8409 11.6 11 11.6ZM29.6 15.8V20H24.8V17.6C24.8019 16.964 25.0554 16.3547 25.5051 15.905C25.9547 15.4553 26.5641 15.2019 27.2 15.2H29C29.1592 15.2 29.3118 15.2632 29.4243 15.3757C29.5368 15.4882 29.6 15.6408 29.6 15.8ZM29.6 25.4V21.2H24.8V23.6C24.8019 24.2359 25.0554 24.8453 25.5051 25.2949C25.9547 25.7446 26.5641 25.9981 27.2 26H29C29.1592 26 29.3118 25.9368 29.4243 25.8242C29.5368 25.7117 29.6 25.5591 29.6 25.4ZM20.1752 21.3752C20.1194 21.431 20.0752 21.4972 20.045 21.5701C20.0148 21.643 19.9993 21.7211 19.9993 21.8C19.9993 21.8789 20.0148 21.957 20.045 22.0299C20.0752 22.1028 20.1194 22.169 20.1752 22.2248C20.231 22.2806 20.2972 22.3248 20.3701 22.355C20.443 22.3852 20.5211 22.4007 20.6 22.4007C20.6789 22.4007 20.757 22.3852 20.8299 22.355C20.9028 22.3248 20.969 22.2806 21.0248 22.2248L22.8248 20.4248C22.8807 20.369 22.925 20.3028 22.9553 20.2299C22.9855 20.157 23.0011 20.0789 23.0011 20C23.0011 19.9211 22.9855 19.8429 22.9553 19.77C22.925 19.6971 22.8807 19.6309 22.8248 19.5752L21.0248 17.7752C20.969 17.7194 20.9028 17.6751 20.8299 17.6449C20.757 17.6148 20.6789 17.5992 20.6 17.5992C20.5211 17.5992 20.443 17.6148 20.3701 17.6449C20.2972 17.6751 20.231 17.7194 20.1752 17.7752C20.1194 17.831 20.0752 17.8972 20.045 17.9701C20.0148 18.043 19.9993 18.1211 19.9993 18.2C19.9993 18.2789 20.0148 18.357 20.045 18.4299C20.0752 18.5028 20.1194 18.569 20.1752 18.6248L20.9516 19.4H17.6C17.4409 19.4 17.2883 19.4632 17.1758 19.5757C17.0632 19.6882 17 19.8408 17 20C17 20.1591 17.0632 20.3117 17.1758 20.4242C17.2883 20.5368 17.4409 20.6 17.6 20.6H20.9516L20.1752 21.3752Z" fill="white" style="fill:white;fill-opacity:1;"/>
</svg>
