<svg width="81" height="80" viewBox="0 0 81 80" fill="none" xmlns="http://www.w3.org/2000/svg">
<g filter="url(#filter0_d_607_758)">
<rect x="8.5" y="2" width="64" height="64" rx="10" fill="white" fill-opacity="0.21" style="fill:white;fill-opacity:0.21;" shape-rendering="crispEdges"/>
<path fill-rule="evenodd" clip-rule="evenodd" d="M31.04 29.9868C30.9066 29.9868 30.7733 29.9602 30.64 29.9068C29.7527 29.5171 28.9986 28.8767 28.4703 28.0642C27.9421 27.2517 27.6628 26.3026 27.6666 25.3335C27.6666 22.5735 29.9066 20.3335 32.6666 20.3335C33.2133 20.3335 33.6666 20.7868 33.6666 21.3335C33.6666 21.8802 33.2133 22.3335 32.6666 22.3335C31.0133 22.3335 29.6666 23.6802 29.6666 25.3335C29.6666 26.5202 30.36 27.6002 31.44 28.0668C31.9466 28.2935 32.1733 28.8802 31.96 29.3868C31.8 29.7602 31.4266 29.9868 31.04 29.9868ZM44.04 29.3868C44.1489 29.6283 44.3478 29.8178 44.5944 29.9149C44.8409 30.012 45.1155 30.0091 45.36 29.9068C46.408 29.4421 47.2645 28.6314 47.7862 27.6106C48.3078 26.5897 48.4629 25.4206 48.2255 24.299C47.9881 23.1774 47.3725 22.1715 46.4819 21.4496C45.5913 20.7277 44.4797 20.3337 43.3333 20.3335C42.7866 20.3335 42.3333 20.7868 42.3333 21.3335C42.3333 21.8802 42.7866 22.3335 43.3333 22.3335C44.9866 22.3335 46.3333 23.6802 46.3333 25.3335C46.3333 26.5202 45.64 27.5868 44.56 28.0668C44.04 28.2935 43.8133 28.8802 44.04 29.3868ZM33 26.6668C33 29.4268 35.24 31.6668 38 31.6668C40.76 31.6668 43 29.4268 43 26.6668C43 23.9068 40.76 21.6668 38 21.6668C35.24 21.6668 33 23.9068 33 26.6668ZM35 26.6668C35 25.0135 36.3466 23.6668 38 23.6668C39.6533 23.6668 41 25.0135 41 26.6668C41 28.3202 39.6533 29.6668 38 29.6668C36.3466 29.6668 35 28.3202 35 26.6668ZM43.7066 43.6668H32.28C30.4666 43.6668 29 42.2002 29 40.3868C29 36.6802 32.0133 33.6668 35.72 33.6668H40.2933C44 33.6668 47.0133 36.6802 47.0133 40.3868C47.0133 42.2002 45.5333 43.6668 43.7333 43.6668H43.7066ZM35.7066 35.6668C33.1066 35.6668 30.9866 37.7868 30.9866 40.3868C30.9866 41.0935 31.56 41.6668 32.2666 41.6668H43.6933C44.4 41.6668 44.9733 41.0935 44.9733 40.3868C44.9733 37.7868 42.8533 35.6668 40.2533 35.6668H35.7066ZM48.0413 41.3335C48.0413 41.8802 48.4946 42.3335 49.0413 42.3335C50.8413 42.3335 52.3213 40.8668 52.3213 39.0535C52.3213 35.3468 49.308 32.3335 45.6013 32.3335C45.0546 32.3335 44.6013 32.7868 44.6013 33.3335C44.6013 33.8802 45.0546 34.3335 45.6013 34.3335C48.2013 34.3335 50.3213 36.4535 50.3213 39.0535C50.3213 39.7602 49.748 40.3335 49.0413 40.3335C48.4946 40.3335 48.0413 40.7868 48.0413 41.3335ZM23.6666 39.0535C23.6666 40.8668 25.1333 42.3335 26.9466 42.3335C27.4933 42.3335 27.9466 41.8802 27.9466 41.3335C27.9466 40.7868 27.4933 40.3335 26.9466 40.3335C26.6071 40.3335 26.2816 40.1986 26.0415 39.9586C25.8015 39.7185 25.6666 39.393 25.6666 39.0535C25.6666 36.4535 27.7866 34.3335 30.3866 34.3335C30.9333 34.3335 31.3866 33.8802 31.3866 33.3335C31.3866 32.7868 30.9333 32.3335 30.3866 32.3335C26.68 32.3335 23.6666 35.3468 23.6666 39.0535Z" fill="#0171DF" style="fill:#0171DF;fill:color(display-p3 0.0039 0.4431 0.8745);fill-opacity:1;"/>
</g>
<defs>
<filter id="filter0_d_607_758" x="0.5" y="0" width="80" height="80" filterUnits="userSpaceOnUse" color-interpolation-filters="sRGB">
<feFlood flood-opacity="0" result="BackgroundImageFix"/>
<feColorMatrix in="SourceAlpha" type="matrix" values="0 0 0 0 0 0 0 0 0 0 0 0 0 0 0 0 0 0 127 0" result="hardAlpha"/>
<feOffset dy="6"/>
<feGaussianBlur stdDeviation="4"/>
<feComposite in2="hardAlpha" operator="out"/>
<feColorMatrix type="matrix" values="0 0 0 0 1 0 0 0 0 1 0 0 0 0 1 0 0 0 0.25 0"/>
<feBlend mode="normal" in2="BackgroundImageFix" result="effect1_dropShadow_607_758"/>
<feBlend mode="normal" in="SourceGraphic" in2="effect1_dropShadow_607_758" result="shape"/>
</filter>
</defs>
</svg>
