<svg width="40" height="40" viewBox="0 0 40 40" fill="none" xmlns="http://www.w3.org/2000/svg">
<path d="M0 5C0 2.23858 2.23858 0 5 0H35C37.7614 0 40 2.23858 40 5V35C40 37.7614 37.7614 40 35 40H5C2.23858 40 0 37.7614 0 35V5Z" fill="#FFCF21" style="fill:#FFCF21;fill:color(display-p3 1.0000 0.8118 0.1294);fill-opacity:1;"/>
<path d="M5 0.5H35C37.4853 0.5 39.5 2.51472 39.5 5V35C39.5 37.4853 37.4853 39.5 35 39.5H5C2.51472 39.5 0.5 37.4853 0.5 35V5C0.5 2.51472 2.51472 0.5 5 0.5Z" stroke="black" stroke-opacity="0.05" style="stroke:black;stroke-opacity:0.05;"/>
<path d="M17.2144 20.8571C17.7259 20.8571 18.2164 21.0603 18.5781 21.422C18.9398 21.7837 19.143 22.2742 19.143 22.7857V27.5C19.143 28.0115 18.9398 28.502 18.5781 28.8637C18.2164 29.2254 17.7259 29.4286 17.2144 29.4286H12.5001C11.9886 29.4286 11.4981 29.2254 11.1364 28.8637C10.7747 28.502 10.5715 28.0115 10.5715 27.5V22.7857C10.5715 22.2742 10.7747 21.7837 11.1364 21.422C11.4981 21.0603 11.9886 20.8571 12.5001 20.8571H17.2144ZM23.7158 20.8571V23.714H26.5718V26.5717H23.7158V29.4277H20.8572V26.5708H23.7141V23.714H20.8572V20.8571H23.7158ZM29.4287 26.5708V29.4286H26.5718V26.5717L29.4287 26.5708ZM17.2144 22.1428H12.5001C12.3296 22.1428 12.1661 22.2106 12.0455 22.3311C11.925 22.4517 11.8572 22.6152 11.8572 22.7857V27.5C11.8572 27.8548 12.1452 28.1428 12.5001 28.1428H17.2144C17.3849 28.1428 17.5484 28.0751 17.669 27.9546C17.7895 27.834 17.8572 27.6705 17.8572 27.5V22.7857C17.8572 22.6152 17.7895 22.4517 17.669 22.3311C17.5484 22.2106 17.3849 22.1428 17.2144 22.1428ZM16.143 23.8571V26.4286H13.5715V23.8571H16.143ZM29.4287 20.8571V23.714H26.5718V20.8571H29.4287ZM17.2144 10.5714C17.7259 10.5714 18.2164 10.7746 18.5781 11.1363C18.9398 11.498 19.143 11.9885 19.143 12.5V17.2143C19.143 17.7258 18.9398 18.2163 18.5781 18.578C18.2164 18.9397 17.7259 19.1428 17.2144 19.1428H12.5001C11.9886 19.1428 11.4981 18.9397 11.1364 18.578C10.7747 18.2163 10.5715 17.7258 10.5715 17.2143V12.5C10.5715 11.9885 10.7747 11.498 11.1364 11.1363C11.4981 10.7746 11.9886 10.5714 12.5001 10.5714H17.2144ZM27.5001 10.5714C28.0116 10.5714 28.5021 10.7746 28.8638 11.1363C29.2255 11.498 29.4287 11.9885 29.4287 12.5V17.2143C29.4287 17.7258 29.2255 18.2163 28.8638 18.578C28.5021 18.9397 28.0116 19.1428 27.5001 19.1428H22.7858C22.2743 19.1428 21.7838 18.9397 21.4221 18.578C21.0604 18.2163 20.8572 17.7258 20.8572 17.2143V12.5C20.8572 11.9885 21.0604 11.498 21.4221 11.1363C21.7838 10.7746 22.2743 10.5714 22.7858 10.5714H27.5001ZM17.2144 11.8571H12.5001C12.3296 11.8571 12.1661 11.9249 12.0455 12.0454C11.925 12.166 11.8572 12.3295 11.8572 12.5V17.2143C11.8572 17.5691 12.1452 17.8571 12.5001 17.8571H17.2144C17.3849 17.8571 17.5484 17.7894 17.669 17.6688C17.7895 17.5483 17.8572 17.3848 17.8572 17.2143V12.5C17.8572 12.3295 17.7895 12.166 17.669 12.0454C17.5484 11.9249 17.3849 11.8571 17.2144 11.8571ZM27.5001 11.8571H22.7858C22.6153 11.8571 22.4518 11.9249 22.3313 12.0454C22.2107 12.166 22.143 12.3295 22.143 12.5V17.2143C22.143 17.5691 22.431 17.8571 22.7858 17.8571H27.5001C27.6706 17.8571 27.8341 17.7894 27.9547 17.6688C28.0752 17.5483 28.143 17.3848 28.143 17.2143V12.5C28.143 12.3295 28.0752 12.166 27.9547 12.0454C27.8341 11.9249 27.6706 11.8571 27.5001 11.8571ZM16.143 13.5714V16.1428H13.5715V13.5714H16.143ZM26.4287 13.5714V16.1428H23.8572V13.5714H26.4287Z" fill="black" style="fill:black;fill-opacity:1;"/>
</svg>
