<svg width="40" height="40" viewBox="0 0 40 40" fill="none" xmlns="http://www.w3.org/2000/svg">
<rect width="40" height="40" rx="5" fill="#0171DF" style="fill:#0171DF;fill:color(display-p3 0.0039 0.4431 0.8745);fill-opacity:1;"/>
<rect x="0.5" y="0.5" width="39" height="39" rx="4.5" stroke="black" stroke-opacity="0.05" style="stroke:black;stroke-opacity:0.05;"/>
<path d="M17.2143 20.8571C17.7258 20.8571 18.2163 21.0603 18.578 21.422C18.9397 21.7837 19.1428 22.2742 19.1428 22.7857V27.5C19.1428 28.0115 18.9397 28.502 18.578 28.8637C18.2163 29.2254 17.7258 29.4286 17.2143 29.4286H12.5C11.9885 29.4286 11.498 29.2254 11.1363 28.8637C10.7746 28.502 10.5714 28.0115 10.5714 27.5V22.7857C10.5714 22.2742 10.7746 21.7837 11.1363 21.422C11.498 21.0603 11.9885 20.8571 12.5 20.8571H17.2143ZM23.7157 20.8571V23.714H26.5717V26.5717H23.7157V29.4277H20.8571V26.5708H23.714V23.714H20.8571V20.8571H23.7157ZM29.4286 26.5708V29.4286H26.5717V26.5717L29.4286 26.5708ZM17.2143 22.1428H12.5C12.3295 22.1428 12.166 22.2106 12.0454 22.3311C11.9249 22.4517 11.8571 22.6152 11.8571 22.7857V27.5C11.8571 27.8548 12.1451 28.1428 12.5 28.1428H17.2143C17.3848 28.1428 17.5483 28.0751 17.6688 27.9546C17.7894 27.834 17.8571 27.6705 17.8571 27.5V22.7857C17.8571 22.6152 17.7894 22.4517 17.6688 22.3311C17.5483 22.2106 17.3848 22.1428 17.2143 22.1428ZM16.1428 23.8571V26.4286H13.5714V23.8571H16.1428ZM29.4286 20.8571V23.714H26.5717V20.8571H29.4286ZM17.2143 10.5714C17.7258 10.5714 18.2163 10.7746 18.578 11.1363C18.9397 11.498 19.1428 11.9885 19.1428 12.5V17.2143C19.1428 17.7258 18.9397 18.2163 18.578 18.578C18.2163 18.9397 17.7258 19.1428 17.2143 19.1428H12.5C11.9885 19.1428 11.498 18.9397 11.1363 18.578C10.7746 18.2163 10.5714 17.7258 10.5714 17.2143V12.5C10.5714 11.9885 10.7746 11.498 11.1363 11.1363C11.498 10.7746 11.9885 10.5714 12.5 10.5714H17.2143ZM27.5 10.5714C28.0115 10.5714 28.502 10.7746 28.8637 11.1363C29.2254 11.498 29.4286 11.9885 29.4286 12.5V17.2143C29.4286 17.7258 29.2254 18.2163 28.8637 18.578C28.502 18.9397 28.0115 19.1428 27.5 19.1428H22.7857C22.2742 19.1428 21.7837 18.9397 21.422 18.578C21.0603 18.2163 20.8571 17.7258 20.8571 17.2143V12.5C20.8571 11.9885 21.0603 11.498 21.422 11.1363C21.7837 10.7746 22.2742 10.5714 22.7857 10.5714H27.5ZM17.2143 11.8571H12.5C12.3295 11.8571 12.166 11.9249 12.0454 12.0454C11.9249 12.166 11.8571 12.3295 11.8571 12.5V17.2143C11.8571 17.5691 12.1451 17.8571 12.5 17.8571H17.2143C17.3848 17.8571 17.5483 17.7894 17.6688 17.6688C17.7894 17.5483 17.8571 17.3848 17.8571 17.2143V12.5C17.8571 12.3295 17.7894 12.166 17.6688 12.0454C17.5483 11.9249 17.3848 11.8571 17.2143 11.8571ZM27.5 11.8571H22.7857C22.6152 11.8571 22.4517 11.9249 22.3311 12.0454C22.2106 12.166 22.1428 12.3295 22.1428 12.5V17.2143C22.1428 17.5691 22.4308 17.8571 22.7857 17.8571H27.5C27.6705 17.8571 27.834 17.7894 27.9546 17.6688C28.0751 17.5483 28.1428 17.3848 28.1428 17.2143V12.5C28.1428 12.3295 28.0751 12.166 27.9546 12.0454C27.834 11.9249 27.6705 11.8571 27.5 11.8571ZM16.1428 13.5714V16.1428H13.5714V13.5714H16.1428ZM26.4286 13.5714V16.1428H23.8571V13.5714H26.4286Z" fill="white" style="fill:white;fill-opacity:1;"/>
</svg>
