<svg width="132" height="132" viewBox="0 0 132 132" fill="none" xmlns="http://www.w3.org/2000/svg">
<g filter="url(#filter0_d_608_1116)">
<rect x="9" y="2" width="112" height="112" rx="17.5" fill="white" fill-opacity="0.24" style="fill:white;fill-opacity:0.24;" shape-rendering="crispEdges"/>
<rect x="9.5" y="2.5" width="111" height="111" rx="17" stroke="black" stroke-opacity="0.05" style="stroke:black;stroke-opacity:0.05;" shape-rendering="crispEdges"/>
<path d="M41 58H57M65 34V47.3333M89 58H73C69.2293 58 67.344 58 66.1733 59.1733C65 60.3413 65 62.2267 65 66M65 73.3867V80.768M73 66V70C73 73.856 75.0907 74 78.3333 74C79.0406 74 79.7189 74.281 80.219 74.781C80.7191 75.2811 81 75.9594 81 76.6667M75.6667 82H73M81 66C84.7707 66 86.656 66 87.8267 67.1733C88.9973 68.3467 89 70.2347 89 74.0107C89 77.7867 89 79.6773 87.8267 80.8507C86.9733 81.704 85.7387 81.9387 83.6667 82M41 42C41 38.2293 41 36.344 42.1733 35.1733C43.3413 34 45.2267 34 49 34C52.7733 34 54.656 34 55.8267 35.1733C57 36.3413 57 38.2267 57 42C57 45.7733 57 47.656 55.8267 48.8267C54.6587 50 52.7733 50 49 50C45.2267 50 43.344 50 42.1733 48.8267C41 47.6587 41 45.7733 41 42ZM41 74C41 70.2293 41 68.344 42.1733 67.1733C43.3413 66 45.2267 66 49 66C52.7733 66 54.656 66 55.8267 67.1733C57 68.3413 57 70.2267 57 74C57 77.7733 57 79.656 55.8267 80.8267C54.6587 82 52.7733 82 49 82C45.2267 82 43.344 82 42.1733 80.8267C41 79.6587 41 77.7733 41 74ZM73 42C73 38.2293 73 36.344 74.1733 35.1733C75.3413 34 77.2267 34 81 34C84.7733 34 86.656 34 87.8267 35.1733C89 36.3413 89 38.2267 89 42C89 45.7733 89 47.656 87.8267 48.8267C86.6587 50 84.7733 50 81 50C77.2267 50 75.344 50 74.1733 48.8267C73 47.6587 73 45.7733 73 42Z" stroke="#0171DF" style="stroke:#0171DF;stroke:color(display-p3 0.0039 0.4431 0.8745);stroke-opacity:1;" stroke-width="2" stroke-linecap="round" stroke-linejoin="round"/>
</g>
<defs>
<filter id="filter0_d_608_1116" x="0.1" y="0.1" width="131.8" height="131.8" filterUnits="userSpaceOnUse" color-interpolation-filters="sRGB">
<feFlood flood-opacity="0" result="BackgroundImageFix"/>
<feColorMatrix in="SourceAlpha" type="matrix" values="0 0 0 0 0 0 0 0 0 0 0 0 0 0 0 0 0 0 127 0" result="hardAlpha"/>
<feOffset dx="1" dy="8"/>
<feGaussianBlur stdDeviation="4.95"/>
<feComposite in2="hardAlpha" operator="out"/>
<feColorMatrix type="matrix" values="0 0 0 0 1 0 0 0 0 1 0 0 0 0 1 0 0 0 0.24 0"/>
<feBlend mode="normal" in2="BackgroundImageFix" result="effect1_dropShadow_608_1116"/>
<feBlend mode="normal" in="SourceGraphic" in2="effect1_dropShadow_608_1116" result="shape"/>
</filter>
</defs>
</svg>
