<svg width="40" height="40" viewBox="0 0 40 40" fill="none" xmlns="http://www.w3.org/2000/svg">
<rect width="40" height="40" rx="5" fill="#0171DF" style="fill:#0171DF;fill:color(display-p3 0.0039 0.4431 0.8745);fill-opacity:1;"/>
<rect x="0.5" y="0.5" width="39" height="39" rx="4.5" stroke="black" stroke-opacity="0.05" style="stroke:black;stroke-opacity:0.05;"/>
<path d="M27.8 10.4C27.9592 10.4 28.1118 10.4632 28.2243 10.5758C28.3368 10.6883 28.4 10.8409 28.4 11V11.6H29C29.1592 11.6 29.3118 11.6632 29.4243 11.7758C29.5368 11.8883 29.6 12.0409 29.6 12.2C29.6 12.3592 29.5368 12.5118 29.4243 12.6243C29.3118 12.7368 29.1592 12.8 29 12.8H28.4V13.4C28.4 13.5592 28.3368 13.7118 28.2243 13.8243C28.1118 13.9368 27.9592 14 27.8 14C27.6409 14 27.4883 13.9368 27.3758 13.8243C27.2632 13.7118 27.2 13.5592 27.2 13.4V12.8H26.6C26.4409 12.8 26.2883 12.7368 26.1758 12.6243C26.0632 12.5118 26 12.3592 26 12.2C26 12.0409 26.0632 11.8883 26.1758 11.7758C26.2883 11.6632 26.4409 11.6 26.6 11.6H27.2V11C27.2 10.8409 27.2632 10.6883 27.3758 10.5758C27.4883 10.4632 27.6409 10.4 27.8 10.4ZM12.2 26C12.3592 26 12.5118 26.0632 12.6243 26.1758C12.7368 26.2883 12.8 26.4409 12.8 26.6V27.2H13.4C13.5592 27.2 13.7118 27.2632 13.8243 27.3758C13.9368 27.4883 14 27.6409 14 27.8C14 27.9592 13.9368 28.1118 13.8243 28.2243C13.7118 28.3368 13.5592 28.4 13.4 28.4H12.8V29C12.8 29.1592 12.7368 29.3118 12.6243 29.4243C12.5118 29.5368 12.3592 29.6 12.2 29.6C12.0409 29.6 11.8883 29.5368 11.7758 29.4243C11.6632 29.3118 11.6 29.1592 11.6 29V28.4H11C10.8409 28.4 10.6883 28.3368 10.5758 28.2243C10.4632 28.1118 10.4 27.9592 10.4 27.8C10.4 27.6409 10.4632 27.4883 10.5758 27.3758C10.6883 27.2632 10.8409 27.2 11 27.2H11.6V26.6C11.6 26.4409 11.6632 26.2883 11.7758 26.1758C11.8883 26.0632 12.0409 26 12.2 26ZM17.0012 10.4C16.2212 10.4 15.65 11.0156 15.5144 11.6696C15.3213 12.6174 14.8564 13.4885 14.1764 14.1764C13.3196 15.0344 12.3284 15.3764 11.672 15.5132C11.0168 15.6488 10.4 16.2212 10.4 17.0024C10.4012 17.7824 11.0168 18.3512 11.6708 18.4868C12.3272 18.6224 13.3184 18.9656 14.1752 19.8236C15.032 20.6816 15.3764 21.6728 15.5132 22.3316C15.65 22.9832 16.22 23.6 17 23.6C17.78 23.6 18.3512 22.9832 18.488 22.3292C18.6795 21.3821 19.1438 20.5116 19.8236 19.8248C20.5108 19.1445 21.3816 18.6795 22.3292 18.4868C22.9844 18.3512 23.6 17.7812 23.6 17C23.6 16.22 22.9844 15.6488 22.3292 15.5132C21.3822 15.3207 20.5118 14.8561 19.8248 14.1764C19.1453 13.4883 18.6808 12.6173 18.488 11.6696C18.3524 11.0156 17.7812 10.4 17.0012 10.4ZM16.4 26V24.7316C16.7942 24.8283 17.2059 24.8283 17.6 24.7316V26C17.6 26.6365 17.8529 27.247 18.303 27.6971C18.7531 28.1472 19.3635 28.4 20 28.4H26C26.6365 28.4 27.247 28.1472 27.6971 27.6971C28.1472 27.247 28.4 26.6365 28.4 26V20C28.4 19.3635 28.1472 18.7531 27.6971 18.303C27.247 17.8529 26.6365 17.6 26 17.6H24.7304C24.8271 17.2059 24.8271 16.7942 24.7304 16.4H26C26.9548 16.4 27.8705 16.7793 28.5456 17.4544C29.2207 18.1296 29.6 19.0452 29.6 20V26C29.6 26.9548 29.2207 27.8705 28.5456 28.5456C27.8705 29.2207 26.9548 29.6 26 29.6H20C19.0452 29.6 18.1296 29.2207 17.4544 28.5456C16.7793 27.8705 16.4 26.9548 16.4 26ZM20 24.2C20 24.0409 20.0632 23.8883 20.1758 23.7758C20.2883 23.6632 20.4409 23.6 20.6 23.6H24.2C24.3592 23.6 24.5118 23.6632 24.6243 23.7758C24.7368 23.8883 24.8 24.0409 24.8 24.2C24.8 24.3592 24.7368 24.5118 24.6243 24.6243C24.5118 24.7368 24.3592 24.8 24.2 24.8H20.6C20.4409 24.8 20.2883 24.7368 20.1758 24.6243C20.0632 24.5118 20 24.3592 20 24.2ZM20.6 21.2C20.4409 21.2 20.2883 21.2632 20.1758 21.3758C20.0632 21.4883 20 21.6409 20 21.8C20 21.9592 20.0632 22.1118 20.1758 22.2243C20.2883 22.3368 20.4409 22.4 20.6 22.4H26C26.1592 22.4 26.3118 22.3368 26.4243 22.2243C26.5368 22.1118 26.6 21.9592 26.6 21.8C26.6 21.6409 26.5368 21.4883 26.4243 21.3758C26.3118 21.2632 26.1592 21.2 26 21.2H20.6Z" fill="white" style="fill:white;fill-opacity:1;"/>
</svg>
