<svg width="40" height="40" viewBox="0 0 40 40" fill="none" xmlns="http://www.w3.org/2000/svg">
<path d="M0 5C0 2.23858 2.23858 0 5 0H35C37.7614 0 40 2.23858 40 5V35C40 37.7614 37.7614 40 35 40H5C2.23858 40 0 37.7614 0 35V5Z" fill="#FFCF21" style="fill:#FFCF21;fill:color(display-p3 1.0000 0.8118 0.1294);fill-opacity:1;"/>
<path d="M5 0.5H35C37.4853 0.5 39.5 2.51472 39.5 5V35C39.5 37.4853 37.4853 39.5 35 39.5H5C2.51472 39.5 0.5 37.4853 0.5 35V5C0.5 2.51472 2.51472 0.5 5 0.5Z" stroke="black" stroke-opacity="0.05" style="stroke:black;stroke-opacity:0.05;"/>
<path d="M27.7999 10.4C27.959 10.4 28.1116 10.4632 28.2242 10.5758C28.3367 10.6883 28.3999 10.8409 28.3999 11V11.6H28.9999C29.159 11.6 29.3116 11.6632 29.4242 11.7758C29.5367 11.8883 29.5999 12.0409 29.5999 12.2C29.5999 12.3592 29.5367 12.5118 29.4242 12.6243C29.3116 12.7368 29.159 12.8 28.9999 12.8H28.3999V13.4C28.3999 13.5592 28.3367 13.7118 28.2242 13.8243C28.1116 13.9368 27.959 14 27.7999 14C27.6408 14 27.4882 13.9368 27.3756 13.8243C27.2631 13.7118 27.1999 13.5592 27.1999 13.4V12.8H26.5999C26.4408 12.8 26.2882 12.7368 26.1756 12.6243C26.0631 12.5118 25.9999 12.3592 25.9999 12.2C25.9999 12.0409 26.0631 11.8883 26.1756 11.7758C26.2882 11.6632 26.4408 11.6 26.5999 11.6H27.1999V11C27.1999 10.8409 27.2631 10.6883 27.3756 10.5758C27.4882 10.4632 27.6408 10.4 27.7999 10.4ZM12.1999 26C12.359 26 12.5116 26.0632 12.6242 26.1758C12.7367 26.2883 12.7999 26.4409 12.7999 26.6V27.2H13.3999C13.559 27.2 13.7116 27.2632 13.8242 27.3758C13.9367 27.4883 13.9999 27.6409 13.9999 27.8C13.9999 27.9592 13.9367 28.1118 13.8242 28.2243C13.7116 28.3368 13.559 28.4 13.3999 28.4H12.7999V29C12.7999 29.1592 12.7367 29.3118 12.6242 29.4243C12.5116 29.5368 12.359 29.6 12.1999 29.6C12.0408 29.6 11.8882 29.5368 11.7756 29.4243C11.6631 29.3118 11.5999 29.1592 11.5999 29V28.4H10.9999C10.8408 28.4 10.6882 28.3368 10.5756 28.2243C10.4631 28.1118 10.3999 27.9592 10.3999 27.8C10.3999 27.6409 10.4631 27.4883 10.5756 27.3758C10.6882 27.2632 10.8408 27.2 10.9999 27.2H11.5999V26.6C11.5999 26.4409 11.6631 26.2883 11.7756 26.1758C11.8882 26.0632 12.0408 26 12.1999 26ZM17.0011 10.4C16.2211 10.4 15.6499 11.0156 15.5143 11.6696C15.3212 12.6174 14.8563 13.4885 14.1763 14.1764C13.3195 15.0344 12.3283 15.3764 11.6719 15.5132C11.0167 15.6488 10.3999 16.2212 10.3999 17.0024C10.4011 17.7824 11.0167 18.3512 11.6707 18.4868C12.3271 18.6224 13.3183 18.9656 14.1751 19.8236C15.0319 20.6816 15.3763 21.6728 15.5131 22.3316C15.6499 22.9832 16.2199 23.6 16.9999 23.6C17.7799 23.6 18.3511 22.9832 18.4879 22.3292C18.6794 21.3821 19.1437 20.5116 19.8235 19.8248C20.5107 19.1445 21.3815 18.6795 22.3291 18.4868C22.9843 18.3512 23.5999 17.7812 23.5999 17C23.5999 16.22 22.9843 15.6488 22.3291 15.5132C21.382 15.3207 20.5117 14.8561 19.8247 14.1764C19.1452 13.4883 18.6806 12.6173 18.4879 11.6696C18.3523 11.0156 17.7811 10.4 17.0011 10.4ZM16.3999 26V24.7316C16.7941 24.8283 17.2057 24.8283 17.5999 24.7316V26C17.5999 26.6365 17.8528 27.247 18.3028 27.6971C18.7529 28.1472 19.3634 28.4 19.9999 28.4H25.9999C26.6364 28.4 27.2469 28.1472 27.697 27.6971C28.147 27.247 28.3999 26.6365 28.3999 26V20C28.3999 19.3635 28.147 18.7531 27.697 18.303C27.2469 17.8529 26.6364 17.6 25.9999 17.6H24.7303C24.8269 17.2059 24.8269 16.7942 24.7303 16.4H25.9999C26.9547 16.4 27.8704 16.7793 28.5455 17.4544C29.2206 18.1296 29.5999 19.0452 29.5999 20V26C29.5999 26.9548 29.2206 27.8705 28.5455 28.5456C27.8704 29.2207 26.9547 29.6 25.9999 29.6H19.9999C19.0451 29.6 18.1294 29.2207 17.4543 28.5456C16.7792 27.8705 16.3999 26.9548 16.3999 26ZM19.9999 24.2C19.9999 24.0409 20.0631 23.8883 20.1756 23.7758C20.2882 23.6632 20.4408 23.6 20.5999 23.6H24.1999C24.359 23.6 24.5116 23.6632 24.6242 23.7758C24.7367 23.8883 24.7999 24.0409 24.7999 24.2C24.7999 24.3592 24.7367 24.5118 24.6242 24.6243C24.5116 24.7368 24.359 24.8 24.1999 24.8H20.5999C20.4408 24.8 20.2882 24.7368 20.1756 24.6243C20.0631 24.5118 19.9999 24.3592 19.9999 24.2ZM20.5999 21.2C20.4408 21.2 20.2882 21.2632 20.1756 21.3758C20.0631 21.4883 19.9999 21.6409 19.9999 21.8C19.9999 21.9592 20.0631 22.1118 20.1756 22.2243C20.2882 22.3368 20.4408 22.4 20.5999 22.4H25.9999C26.159 22.4 26.3116 22.3368 26.4242 22.2243C26.5367 22.1118 26.5999 21.9592 26.5999 21.8C26.5999 21.6409 26.5367 21.4883 26.4242 21.3758C26.3116 21.2632 26.159 21.2 25.9999 21.2H20.5999Z" fill="black" style="fill:black;fill-opacity:1;"/>
</svg>
