<svg width="40" height="40" viewBox="0 0 40 40" fill="none" xmlns="http://www.w3.org/2000/svg">
<path d="M0 5C0 2.23858 2.23858 0 5 0H35C37.7614 0 40 2.23858 40 5V35C40 37.7614 37.7614 40 35 40H5C2.23858 40 0 37.7614 0 35V5Z" fill="#FFCF21" style="fill:#FFCF21;fill:color(display-p3 1.0000 0.8118 0.1294);fill-opacity:1;"/>
<path d="M5 0.5H35C37.4853 0.5 39.5 2.51472 39.5 5V35C39.5 37.4853 37.4853 39.5 35 39.5H5C2.51472 39.5 0.5 37.4853 0.5 35V5C0.5 2.51472 2.51472 0.5 5 0.5Z" stroke="black" stroke-opacity="0.05" style="stroke:black;stroke-opacity:0.05;"/>
<path d="M22.9999 13.4C22.9999 14.1957 22.6838 14.9587 22.1212 15.5213C21.5586 16.084 20.7956 16.4 19.9999 16.4C19.2043 16.4 18.4412 16.084 17.8786 15.5213C17.316 14.9587 16.9999 14.1957 16.9999 13.4C16.9999 12.6044 17.316 11.8413 17.8786 11.2787C18.4412 10.7161 19.2043 10.4 19.9999 10.4C20.7956 10.4 21.5586 10.7161 22.1212 11.2787C22.6838 11.8413 22.9999 12.6044 22.9999 13.4ZM28.9999 14C28.9999 14.6365 28.747 15.247 28.297 15.6971C27.8469 16.1472 27.2364 16.4 26.5999 16.4C25.9634 16.4 25.3529 16.1472 24.9028 15.6971C24.4528 15.247 24.1999 14.6365 24.1999 14C24.1999 13.3635 24.4528 12.7531 24.9028 12.303C25.3529 11.8529 25.9634 11.6 26.5999 11.6C27.2364 11.6 27.8469 11.8529 28.297 12.303C28.747 12.7531 28.9999 13.3635 28.9999 14ZM13.3999 16.4C14.0364 16.4 14.6469 16.1472 15.097 15.6971C15.547 15.247 15.7999 14.6365 15.7999 14C15.7999 13.3635 15.547 12.7531 15.097 12.303C14.6469 11.8529 14.0364 11.6 13.3999 11.6C12.7634 11.6 12.1529 11.8529 11.7028 12.303C11.2528 12.7531 10.9999 13.3635 10.9999 14C10.9999 14.6365 11.2528 15.247 11.7028 15.6971C12.1529 16.1472 12.7634 16.4 13.3999 16.4ZM15.1999 19.1C15.1999 18.272 15.8719 17.6 16.6999 17.6H23.2999C24.0259 17.6 24.6319 18.116 24.7699 18.8H24.1999C23.4995 18.7999 22.8212 19.0449 22.2825 19.4924C21.7438 19.94 21.3786 20.5619 21.2503 21.2504C20.5618 21.3787 19.9399 21.7439 19.4923 22.2826C19.0448 22.8213 18.7998 23.4997 18.7999 24.2V29C18.7999 29.156 18.8115 29.3084 18.8347 29.4572C17.7963 29.1974 16.8745 28.5979 16.216 27.7541C15.5574 26.9102 15.1997 25.8704 15.1999 24.8V19.1ZM29.5495 21.2504L29.5999 21.26V19.1C29.5999 18.272 28.9279 17.6 28.0999 17.6H25.5451C25.7803 17.9504 25.9351 18.3596 25.9831 18.8H26.5999C27.3003 18.7999 27.9786 19.0449 28.5173 19.4924C29.056 19.94 29.4212 20.5619 29.5495 21.2504ZM13.9999 19.1C13.9999 18.5444 14.1679 18.0296 14.4547 17.6H11.8999C11.0719 17.6 10.3999 18.272 10.3999 19.1V23.6C10.3998 24.1138 10.5097 24.6216 10.7222 25.0893C10.9347 25.5571 11.2448 25.9739 11.6318 26.3119C12.0187 26.6498 12.4735 26.901 12.9656 27.0486C13.4577 27.1962 13.9756 27.2368 14.4847 27.1676C14.1642 26.4195 13.9992 25.6139 13.9999 24.8V19.1ZM22.3999 22.4V21.8C22.3999 21.3226 22.5895 20.8648 22.9271 20.5272C23.2647 20.1897 23.7225 20 24.1999 20H26.5999C27.0773 20 27.5351 20.1897 27.8727 20.5272C28.2103 20.8648 28.3999 21.3226 28.3999 21.8V22.4H28.9999C29.4773 22.4 29.9351 22.5897 30.2727 22.9272C30.6103 23.2648 30.7999 23.7226 30.7999 24.2V26H28.3999V25.4C28.3999 25.2409 28.3367 25.0883 28.2242 24.9758C28.1116 24.8632 27.959 24.8 27.7999 24.8C27.6408 24.8 27.4882 24.8632 27.3756 24.9758C27.2631 25.0883 27.1999 25.2409 27.1999 25.4V26H23.5999V25.4C23.5999 25.2409 23.5367 25.0883 23.4242 24.9758C23.3116 24.8632 23.159 24.8 22.9999 24.8C22.8408 24.8 22.6882 24.8632 22.5756 24.9758C22.4631 25.0883 22.3999 25.2409 22.3999 25.4V26H19.9999V24.2C19.9999 23.7226 20.1895 23.2648 20.5271 22.9272C20.8647 22.5897 21.3225 22.4 21.7999 22.4H22.3999ZM23.5999 21.8V22.4H27.1999V21.8C27.1999 21.6409 27.1367 21.4883 27.0242 21.3758C26.9116 21.2632 26.759 21.2 26.5999 21.2H24.1999C24.0408 21.2 23.8882 21.2632 23.7756 21.3758C23.6631 21.4883 23.5999 21.6409 23.5999 21.8ZM28.3999 27.8V27.2H30.7999V29C30.7999 29.4774 30.6103 29.9353 30.2727 30.2728C29.9351 30.6104 29.4773 30.8 28.9999 30.8H21.7999C21.3225 30.8 20.8647 30.6104 20.5271 30.2728C20.1895 29.9353 19.9999 29.4774 19.9999 29V27.2H22.3999V27.8C22.3999 27.9592 22.4631 28.1118 22.5756 28.2243C22.6882 28.3368 22.8408 28.4 22.9999 28.4C23.159 28.4 23.3116 28.3368 23.4242 28.2243C23.5367 28.1118 23.5999 27.9592 23.5999 27.8V27.2H27.1999V27.8C27.1999 27.9592 27.2631 28.1118 27.3756 28.2243C27.4882 28.3368 27.6408 28.4 27.7999 28.4C27.959 28.4 28.1116 28.3368 28.2242 28.2243C28.3367 28.1118 28.3999 27.9592 28.3999 27.8Z" fill="black" style="fill:black;fill-opacity:1;"/>
</svg>
