<svg width="40" height="40" viewBox="0 0 40 40" fill="none" xmlns="http://www.w3.org/2000/svg">
<rect width="40" height="40" rx="5" fill="#0171DF" style="fill:#0171DF;fill:color(display-p3 0.0039 0.4431 0.8745);fill-opacity:1;"/>
<rect x="0.5" y="0.5" width="39" height="39" rx="4.5" stroke="black" stroke-opacity="0.05" style="stroke:black;stroke-opacity:0.05;"/>
<path d="M23 13.4C23 14.1957 22.684 14.9587 22.1213 15.5213C21.5587 16.084 20.7957 16.4 20 16.4C19.2044 16.4 18.4413 16.084 17.8787 15.5213C17.3161 14.9587 17 14.1957 17 13.4C17 12.6044 17.3161 11.8413 17.8787 11.2787C18.4413 10.7161 19.2044 10.4 20 10.4C20.7957 10.4 21.5587 10.7161 22.1213 11.2787C22.684 11.8413 23 12.6044 23 13.4ZM29 14C29 14.6365 28.7472 15.247 28.2971 15.6971C27.847 16.1472 27.2365 16.4 26.6 16.4C25.9635 16.4 25.3531 16.1472 24.903 15.6971C24.4529 15.247 24.2 14.6365 24.2 14C24.2 13.3635 24.4529 12.7531 24.903 12.303C25.3531 11.8529 25.9635 11.6 26.6 11.6C27.2365 11.6 27.847 11.8529 28.2971 12.303C28.7472 12.7531 29 13.3635 29 14ZM13.4 16.4C14.0365 16.4 14.647 16.1472 15.0971 15.6971C15.5472 15.247 15.8 14.6365 15.8 14C15.8 13.3635 15.5472 12.7531 15.0971 12.303C14.647 11.8529 14.0365 11.6 13.4 11.6C12.7635 11.6 12.1531 11.8529 11.703 12.303C11.2529 12.7531 11 13.3635 11 14C11 14.6365 11.2529 15.247 11.703 15.6971C12.1531 16.1472 12.7635 16.4 13.4 16.4ZM15.2 19.1C15.2 18.272 15.872 17.6 16.7 17.6H23.3C24.026 17.6 24.632 18.116 24.77 18.8H24.2C23.4997 18.7999 22.8213 19.0449 22.2826 19.4924C21.7439 19.94 21.3787 20.5619 21.2504 21.2504C20.5619 21.3787 19.94 21.7439 19.4924 22.2826C19.0449 22.8213 18.7999 23.4997 18.8 24.2V29C18.8 29.156 18.8116 29.3084 18.8348 29.4572C17.7964 29.1974 16.8747 28.5979 16.2161 27.7541C15.5575 26.9102 15.1999 25.8704 15.2 24.8V19.1ZM29.5496 21.2504L29.6 21.26V19.1C29.6 18.272 28.928 17.6 28.1 17.6H25.5452C25.7804 17.9504 25.9352 18.3596 25.9832 18.8H26.6C27.3004 18.7999 27.9787 19.0449 28.5174 19.4924C29.0562 19.94 29.4213 20.5619 29.5496 21.2504ZM14 19.1C14 18.5444 14.168 18.0296 14.4548 17.6H11.9C11.072 17.6 10.4 18.272 10.4 19.1V23.6C10.4 24.1138 10.5099 24.6216 10.7223 25.0893C10.9348 25.5571 11.2449 25.9739 11.6319 26.3119C12.0188 26.6498 12.4736 26.901 12.9657 27.0486C13.4578 27.1962 13.9758 27.2368 14.4848 27.1676C14.1643 26.4195 13.9994 25.6139 14 24.8V19.1ZM22.4 22.4V21.8C22.4 21.3226 22.5897 20.8648 22.9272 20.5272C23.2648 20.1897 23.7226 20 24.2 20H26.6C27.0774 20 27.5353 20.1897 27.8728 20.5272C28.2104 20.8648 28.4 21.3226 28.4 21.8V22.4H29C29.4774 22.4 29.9353 22.5897 30.2728 22.9272C30.6104 23.2648 30.8 23.7226 30.8 24.2V26H28.4V25.4C28.4 25.2409 28.3368 25.0883 28.2243 24.9758C28.1118 24.8632 27.9592 24.8 27.8 24.8C27.6409 24.8 27.4883 24.8632 27.3758 24.9758C27.2632 25.0883 27.2 25.2409 27.2 25.4V26H23.6V25.4C23.6 25.2409 23.5368 25.0883 23.4243 24.9758C23.3118 24.8632 23.1592 24.8 23 24.8C22.8409 24.8 22.6883 24.8632 22.5758 24.9758C22.4632 25.0883 22.4 25.2409 22.4 25.4V26H20V24.2C20 23.7226 20.1897 23.2648 20.5272 22.9272C20.8648 22.5897 21.3226 22.4 21.8 22.4H22.4ZM23.6 21.8V22.4H27.2V21.8C27.2 21.6409 27.1368 21.4883 27.0243 21.3758C26.9118 21.2632 26.7592 21.2 26.6 21.2H24.2C24.0409 21.2 23.8883 21.2632 23.7758 21.3758C23.6632 21.4883 23.6 21.6409 23.6 21.8ZM28.4 27.8V27.2H30.8V29C30.8 29.4774 30.6104 29.9353 30.2728 30.2728C29.9353 30.6104 29.4774 30.8 29 30.8H21.8C21.3226 30.8 20.8648 30.6104 20.5272 30.2728C20.1897 29.9353 20 29.4774 20 29V27.2H22.4V27.8C22.4 27.9592 22.4632 28.1118 22.5758 28.2243C22.6883 28.3368 22.8409 28.4 23 28.4C23.1592 28.4 23.3118 28.3368 23.4243 28.2243C23.5368 28.1118 23.6 27.9592 23.6 27.8V27.2H27.2V27.8C27.2 27.9592 27.2632 28.1118 27.3758 28.2243C27.4883 28.3368 27.6409 28.4 27.8 28.4C27.9592 28.4 28.1118 28.3368 28.2243 28.2243C28.3368 28.1118 28.4 27.9592 28.4 27.8Z" fill="white" style="fill:white;fill-opacity:1;"/>
</svg>
