<svg width="40" height="40" viewBox="0 0 40 40" fill="none" xmlns="http://www.w3.org/2000/svg">
<rect width="40" height="40" rx="5" fill="#0171DF" style="fill:#0171DF;fill:color(display-p3 0.0039 0.4431 0.8745);fill-opacity:1;"/>
<rect x="0.5" y="0.5" width="39" height="39" rx="4.5" stroke="black" stroke-opacity="0.05" style="stroke:black;stroke-opacity:0.05;"/>
<path d="M11.6 14C11.6 13.3635 11.8528 12.753 12.3029 12.3029C12.753 11.8528 13.3635 11.6 14 11.6H22.4C23.0365 11.6 23.6469 11.8528 24.097 12.3029C24.5471 12.753 24.8 13.3635 24.8 14V22.4H28.4V24.8C28.4 25.7548 28.0207 26.6704 27.3456 27.3456C26.6704 28.0207 25.7548 28.4 24.8 28.4H15.2C14.2452 28.4 13.3295 28.0207 12.6544 27.3456C11.9793 26.6704 11.6 25.7548 11.6 24.8V14ZM24.8 23.6V27.2C25.4365 27.2 26.0469 26.9471 26.497 26.497C26.9471 26.0469 27.2 25.4365 27.2 24.8V23.6H24.8ZM23.6 27.2V14C23.6 13.6817 23.4735 13.3765 23.2485 13.1514C23.0235 12.9264 22.7182 12.8 22.4 12.8H14C13.6817 12.8 13.3765 12.9264 13.1514 13.1514C12.9264 13.3765 12.8 13.6817 12.8 14V24.8C12.8 25.4365 13.0528 26.0469 13.5029 26.497C13.953 26.9471 14.5635 27.2 15.2 27.2H23.6Z" fill="white" style="fill:white;fill-opacity:1;"/>
<path d="M15.2 15.8C15.2 15.6408 15.2632 15.4882 15.3757 15.3757C15.4882 15.2632 15.6408 15.2 15.8 15.2H20.6C20.7591 15.2 20.9117 15.2632 21.0242 15.3757C21.1367 15.4882 21.2 15.6408 21.2 15.8C21.2 15.9591 21.1367 16.1117 21.0242 16.2242C20.9117 16.3367 20.7591 16.4 20.6 16.4H15.8C15.6408 16.4 15.4882 16.3367 15.3757 16.2242C15.2632 16.1117 15.2 15.9591 15.2 15.8ZM15.2 19.4C15.2 19.2408 15.2632 19.0882 15.3757 18.9757C15.4882 18.8632 15.6408 18.8 15.8 18.8H20.6C20.7591 18.8 20.9117 18.8632 21.0242 18.9757C21.1367 19.0882 21.2 19.2408 21.2 19.4C21.2 19.5591 21.1367 19.7117 21.0242 19.8242C20.9117 19.9367 20.7591 20 20.6 20H15.8C15.6408 20 15.4882 19.9367 15.3757 19.8242C15.2632 19.7117 15.2 19.5591 15.2 19.4ZM15.2 23C15.2 22.8408 15.2632 22.6882 15.3757 22.5757C15.4882 22.4632 15.6408 22.4 15.8 22.4H18.2C18.3591 22.4 18.5117 22.4632 18.6242 22.5757C18.7367 22.6882 18.8 22.8408 18.8 23C18.8 23.1591 18.7367 23.3117 18.6242 23.4242C18.5117 23.5367 18.3591 23.6 18.2 23.6H15.8C15.6408 23.6 15.4882 23.5367 15.3757 23.4242C15.2632 23.3117 15.2 23.1591 15.2 23Z" fill="white" style="fill:white;fill-opacity:1;"/>
</svg>
