<svg width="40" height="40" viewBox="0 0 40 40" fill="none" xmlns="http://www.w3.org/2000/svg">
<path d="M0 5C0 2.23858 2.23858 0 5 0H35C37.7614 0 40 2.23858 40 5V35C40 37.7614 37.7614 40 35 40H5C2.23858 40 0 37.7614 0 35V5Z" fill="#FFCF21" style="fill:#FFCF21;fill:color(display-p3 1.0000 0.8118 0.1294);fill-opacity:1;"/>
<path d="M5 0.5H35C37.4853 0.5 39.5 2.51472 39.5 5V35C39.5 37.4853 37.4853 39.5 35 39.5H5C2.51472 39.5 0.5 37.4853 0.5 35V5C0.5 2.51472 2.51472 0.5 5 0.5Z" stroke="black" stroke-opacity="0.05" style="stroke:black;stroke-opacity:0.05;"/>
<path d="M11.6001 14C11.6001 13.3635 11.853 12.753 12.303 12.3029C12.7531 11.8528 13.3636 11.6 14.0001 11.6H22.4001C23.0366 11.6 23.6471 11.8528 24.0972 12.3029C24.5472 12.753 24.8001 13.3635 24.8001 14V22.4H28.4001V24.8C28.4001 25.7548 28.0208 26.6704 27.3457 27.3456C26.6706 28.0207 25.7549 28.4 24.8001 28.4H15.2001C14.2453 28.4 13.3296 28.0207 12.6545 27.3456C11.9794 26.6704 11.6001 25.7548 11.6001 24.8V14ZM24.8001 23.6V27.2C25.4366 27.2 26.0471 26.9471 26.4972 26.497C26.9472 26.0469 27.2001 25.4365 27.2001 24.8V23.6H24.8001ZM23.6001 27.2V14C23.6001 13.6817 23.4737 13.3765 23.2486 13.1514C23.0236 12.9264 22.7184 12.8 22.4001 12.8H14.0001C13.6818 12.8 13.3766 12.9264 13.1516 13.1514C12.9265 13.3765 12.8001 13.6817 12.8001 14V24.8C12.8001 25.4365 13.053 26.0469 13.503 26.497C13.9531 26.9471 14.5636 27.2 15.2001 27.2H23.6001Z" fill="black" style="fill:black;fill-opacity:1;"/>
<path d="M15.2002 15.8C15.2002 15.6408 15.2634 15.4882 15.3759 15.3757C15.4885 15.2632 15.6411 15.2 15.8002 15.2H20.6002C20.7593 15.2 20.9119 15.2632 21.0245 15.3757C21.137 15.4882 21.2002 15.6408 21.2002 15.8C21.2002 15.9591 21.137 16.1117 21.0245 16.2242C20.9119 16.3367 20.7593 16.4 20.6002 16.4H15.8002C15.6411 16.4 15.4885 16.3367 15.3759 16.2242C15.2634 16.1117 15.2002 15.9591 15.2002 15.8ZM15.2002 19.4C15.2002 19.2408 15.2634 19.0882 15.3759 18.9757C15.4885 18.8632 15.6411 18.8 15.8002 18.8H20.6002C20.7593 18.8 20.9119 18.8632 21.0245 18.9757C21.137 19.0882 21.2002 19.2408 21.2002 19.4C21.2002 19.5591 21.137 19.7117 21.0245 19.8242C20.9119 19.9367 20.7593 20 20.6002 20H15.8002C15.6411 20 15.4885 19.9367 15.3759 19.8242C15.2634 19.7117 15.2002 19.5591 15.2002 19.4ZM15.2002 23C15.2002 22.8408 15.2634 22.6882 15.3759 22.5757C15.4885 22.4632 15.6411 22.4 15.8002 22.4H18.2002C18.3593 22.4 18.5119 22.4632 18.6245 22.5757C18.737 22.6882 18.8002 22.8408 18.8002 23C18.8002 23.1591 18.737 23.3117 18.6245 23.4242C18.5119 23.5367 18.3593 23.6 18.2002 23.6H15.8002C15.6411 23.6 15.4885 23.5367 15.3759 23.4242C15.2634 23.3117 15.2002 23.1591 15.2002 23Z" fill="black" style="fill:black;fill-opacity:1;"/>
</svg>
