<svg width="40" height="40" viewBox="0 0 40 40" fill="none" xmlns="http://www.w3.org/2000/svg">
<rect width="40" height="40" rx="5" fill="#0171DF" style="fill:#0171DF;fill:color(display-p3 0.0039 0.4431 0.8745);fill-opacity:1;"/>
<rect x="0.5" y="0.5" width="39" height="39" rx="4.5" stroke="black" stroke-opacity="0.05" style="stroke:black;stroke-opacity:0.05;"/>
<g clip-path="url(#clip0_37_347)">
<path d="M24.088 14.412C23.7435 13.9673 23.2747 13.6349 22.741 13.457L21.363 13.009C21.2572 12.9713 21.1657 12.9019 21.1009 12.8101C21.0362 12.7183 21.0014 12.6088 21.0014 12.4965C21.0014 12.3842 21.0362 12.2747 21.1009 12.1829C21.1657 12.0911 21.2572 12.0217 21.363 11.984L22.741 11.536C23.1488 11.3952 23.5191 11.1633 23.8239 10.858C24.1287 10.5527 24.3599 10.182 24.5 9.774L24.511 9.74L24.959 8.363C24.9962 8.25652 25.0657 8.16424 25.1577 8.09896C25.2497 8.03367 25.3597 7.9986 25.4725 7.9986C25.5853 7.9986 25.6953 8.03367 25.7873 8.09896C25.8793 8.16424 25.9488 8.25652 25.986 8.363L26.433 9.74C26.5727 10.1585 26.8081 10.5388 27.1203 10.8505C27.4326 11.1623 27.8132 11.397 28.232 11.536L29.609 11.984L29.637 11.991C29.7428 12.0287 29.8343 12.0981 29.8991 12.1899C29.9638 12.2817 29.9986 12.3912 29.9986 12.5035C29.9986 12.6158 29.9638 12.7253 29.8991 12.8171C29.8343 12.9089 29.7428 12.9783 29.637 13.016L28.259 13.464C27.8404 13.6032 27.46 13.8379 27.1479 14.1497C26.8358 14.4614 26.6006 14.8416 26.461 15.26L26.013 16.637L26 16.671C25.9568 16.7716 25.8842 16.8569 25.7918 16.9156C25.6993 16.9743 25.5913 17.0037 25.4819 17.0001C25.3724 16.9964 25.2666 16.9598 25.1784 16.895C25.0901 16.8302 25.0234 16.7403 24.987 16.637L24.539 15.26C24.4389 14.9535 24.2867 14.6667 24.089 14.412M31.784 18.213L31.018 17.965C30.7856 17.8873 30.5744 17.7566 30.4012 17.5832C30.228 17.4098 30.0975 17.1985 30.02 16.966L29.77 16.202C29.7493 16.1429 29.7107 16.0918 29.6597 16.0556C29.6086 16.0193 29.5476 15.9999 29.485 15.9999C29.4224 15.9999 29.3614 16.0193 29.3103 16.0556C29.2593 16.0918 29.2207 16.1429 29.2 16.202L28.952 16.966C28.8759 17.197 28.7476 17.4074 28.5769 17.5806C28.4062 17.7539 28.1978 17.8855 27.968 17.965L27.203 18.213C27.1439 18.2337 27.0928 18.2723 27.0565 18.3233C27.0203 18.3744 27.0009 18.4354 27.0009 18.498C27.0009 18.5606 27.0203 18.6216 27.0565 18.6727C27.0928 18.7238 27.1439 18.7623 27.203 18.783L27.968 19.032C28.2011 19.1097 28.4129 19.2408 28.5865 19.4147C28.7601 19.5887 28.8907 19.8007 28.968 20.034L29.216 20.798C29.2367 20.8571 29.2753 20.9082 29.3263 20.9445C29.3774 20.9807 29.4384 21.0001 29.501 21.0001C29.5636 21.0001 29.6246 20.9807 29.6757 20.9445C29.7267 20.9082 29.7653 20.8571 29.786 20.798L30.035 20.034C30.1126 19.8014 30.2432 19.59 30.4166 19.4166C30.59 19.2432 30.8014 19.1126 31.034 19.035L31.799 18.787C31.8581 18.7663 31.9092 18.7278 31.9454 18.6767C31.9817 18.6256 32.0011 18.5646 32.0011 18.502C32.0011 18.4394 31.9817 18.3784 31.9454 18.3273C31.9092 18.2763 31.8581 18.2377 31.799 18.217L31.784 18.213ZM20.072 12H13.25C12.388 12 11.5614 12.3424 10.9519 12.9519C10.3424 13.5614 10 14.388 10 15.25V24.75C10 25.612 10.3424 26.4386 10.9519 27.0481C11.5614 27.6576 12.388 28 13.25 28H26.75C27.1768 28 27.5994 27.9159 27.9937 27.7526C28.388 27.5893 28.7463 27.3499 29.0481 27.0481C29.3499 26.7463 29.5893 26.388 29.7526 25.9937C29.9159 25.5994 30 25.1768 30 24.75V21.931C29.7933 22.0263 29.5651 22.0651 29.3386 22.0437C29.112 22.0223 28.8952 21.9413 28.71 21.809C28.4837 21.6479 28.3126 21.4209 28.22 21.159L27.98 20.399C27.9514 20.3127 27.9035 20.2341 27.84 20.169C27.7761 20.109 27.7015 20.0615 27.62 20.029L26.83 19.779C26.5752 19.6884 26.355 19.5206 26.2 19.299C26.0419 19.0811 25.9578 18.8182 25.96 18.549C25.96 18.3169 26.0222 18.089 26.14 17.889C25.9298 17.997 25.6963 18.0519 25.46 18.049C25.1418 18.048 24.8314 17.9504 24.57 17.769C24.3058 17.5766 24.1069 17.3079 24 16.999L23.59 15.549C23.5226 15.3517 23.4247 15.1661 23.3 14.999L23.12 14.899C22.916 14.7002 22.6699 14.5498 22.4 14.459L21 13.999C20.6977 13.8682 20.4454 13.6438 20.28 13.359C20.1445 13.1631 20.0554 12.9389 20.0193 12.7035C19.9833 12.468 20.0013 12.2275 20.072 12Z" fill="white" style="fill:white;fill-opacity:1;"/>
</g>
<defs>
<clipPath id="clip0_37_347">
<rect width="24" height="24" fill="white" style="fill:white;fill-opacity:1;" transform="translate(8 8)"/>
</clipPath>
</defs>
</svg>
