<svg width="65" height="64" viewBox="0 0 65 64" fill="none" xmlns="http://www.w3.org/2000/svg">
<rect x="0.5" width="64" height="64" rx="10" fill="white" style="fill:white;fill-opacity:1;"/>
<path d="M37.332 34.6667C37.332 35.1971 37.5427 35.7058 37.9178 36.0809C38.2929 36.456 38.8016 36.6667 39.332 36.6667C39.8625 36.6667 40.3712 36.456 40.7462 36.0809C41.1213 35.7058 41.332 35.1971 41.332 34.6667C41.332 34.1363 41.1213 33.6275 40.7462 33.2525C40.3712 32.8774 39.8625 32.6667 39.332 32.6667C38.8016 32.6667 38.2929 32.8774 37.9178 33.2525C37.5427 33.6275 37.332 34.1363 37.332 34.6667Z" stroke="black" style="stroke:black;stroke-opacity:1;" stroke-width="2" stroke-linecap="round" stroke-linejoin="round"/>
<path d="M29.3327 25.3333H37.3327C41.1033 25.3333 42.99 25.3333 44.1607 26.5053C45.3327 27.676 45.3327 29.5627 45.3327 33.3333V36C45.3327 39.7707 45.3327 41.6573 44.1607 42.828C42.99 44 41.1033 44 37.3327 44H29.3327C24.3047 44 21.79 44 20.2287 42.4373C18.6673 40.8747 18.666 38.3613 18.666 33.3333V30.6667C18.666 25.6387 18.666 23.124 20.2287 21.5627C21.7913 20.0013 24.3047 20 29.3327 20H34.666C35.906 20 36.526 20 37.0354 20.136C37.7134 20.3181 38.3315 20.6754 38.8277 21.172C39.3239 21.6687 39.6806 22.2872 39.862 22.9653C39.9993 23.4733 39.9993 24.0933 39.9993 25.3333" stroke="black" style="stroke:black;stroke-opacity:1;" stroke-width="2" stroke-linecap="round" stroke-linejoin="round"/>
</svg>
