<svg width="40" height="40" viewBox="0 0 40 40" fill="none" xmlns="http://www.w3.org/2000/svg">
<path d="M0 5C0 2.23858 2.23858 0 5 0H35C37.7614 0 40 2.23858 40 5V35C40 37.7614 37.7614 40 35 40H5C2.23858 40 0 37.7614 0 35V5Z" fill="#FFCF21" style="fill:#FFCF21;fill:color(display-p3 1.0000 0.8118 0.1294);fill-opacity:1;"/>
<path d="M5 0.5H35C37.4853 0.5 39.5 2.51472 39.5 5V35C39.5 37.4853 37.4853 39.5 35 39.5H5C2.51472 39.5 0.5 37.4853 0.5 35V5C0.5 2.51472 2.51472 0.5 5 0.5Z" stroke="black" stroke-opacity="0.05" style="stroke:black;stroke-opacity:0.05;"/>
<path d="M10.5715 12.9286C10.5715 12.3034 10.8199 11.7039 11.2619 11.2618C11.704 10.8198 12.3035 10.5714 12.9287 10.5714H24.5001C25.1253 10.5714 25.7248 10.8198 26.1669 11.2618C26.6089 11.7039 26.8572 12.3034 26.8572 12.9286V14.0068C27.6709 14.0612 28.4334 14.4228 28.9904 15.0183C29.5475 15.6138 29.8573 16.3988 29.8572 17.2143V26.2143C29.8572 27.0667 29.5186 27.8843 28.9158 28.4871C28.313 29.0899 27.4954 29.4286 26.643 29.4286H13.7892C12.9368 29.4286 12.1192 29.0899 11.5164 28.4871C10.9136 27.8843 10.575 27.0667 10.575 26.2143V17.2143H10.5715V13.1428H10.581C10.5748 13.0716 10.5717 13.0001 10.5715 12.9286ZM25.5715 12.9286C25.5715 12.3371 25.0915 11.8571 24.5001 11.8571H12.9287C12.6445 11.8571 12.372 11.97 12.1711 12.1709C11.9701 12.3719 11.8572 12.6444 11.8572 12.9286C11.8572 13.2127 11.9701 13.4852 12.1711 13.6862C12.372 13.8871 12.6445 14 12.9287 14H25.5715V12.9286ZM24.0715 21.7143C23.901 21.7143 23.7375 21.782 23.617 21.9026C23.4964 22.0231 23.4287 22.1866 23.4287 22.3571C23.4287 22.5276 23.4964 22.6911 23.617 22.8117C23.7375 22.9323 23.901 23 24.0715 23H26.2144C26.3849 23 26.5484 22.9323 26.669 22.8117C26.7895 22.6911 26.8572 22.5276 26.8572 22.3571C26.8572 22.1866 26.7895 22.0231 26.669 21.9026C26.5484 21.782 26.3849 21.7143 26.2144 21.7143H24.0715Z" fill="black" style="fill:black;fill-opacity:1;"/>
</svg>
