<svg width="65" height="64" viewBox="0 0 65 64" fill="none" xmlns="http://www.w3.org/2000/svg">
<rect x="0.5" width="64" height="64" rx="10" fill="white" style="fill:white;fill-opacity:1;"/>
<path d="M40.9993 24C42.7327 24.172 43.8993 24.56 44.77 25.436C46.3327 27.008 46.3327 29.5387 46.3327 34.5987C46.3327 39.6587 46.3327 42.1893 44.77 43.7613C43.2073 45.3333 40.694 45.3333 35.666 45.3333H30.3327C25.3047 45.3333 22.79 45.3333 21.2287 43.76C19.666 42.1907 19.666 39.66 19.666 34.6C19.666 29.54 19.666 27.0093 21.2287 25.4373C22.0993 24.56 23.266 24.172 24.9993 24" stroke="black" style="stroke:black;stroke-opacity:1;" stroke-width="2" stroke-linecap="round" stroke-linejoin="round"/>
<path d="M29.6661 23.3334C30.3221 24.008 32.0661 26.6667 32.9994 26.6667M32.9994 26.6667C33.9327 26.6667 35.6767 24.008 36.3327 23.3334M32.9994 26.6667V18.6667M41.6767 34.6667H41.6634M24.3434 34.6667H24.3301M36.3327 34.6667C36.3327 35.5507 35.9816 36.3986 35.3564 37.0237C34.7313 37.6488 33.8835 38 32.9994 38C32.1154 38 31.2675 37.6488 30.6424 37.0237C30.0173 36.3986 29.6661 35.5507 29.6661 34.6667C29.6661 33.7826 30.0173 32.9348 30.6424 32.3097C31.2675 31.6845 32.1154 31.3334 32.9994 31.3334C33.8835 31.3334 34.7313 31.6845 35.3564 32.3097C35.9816 32.9348 36.3327 33.7826 36.3327 34.6667Z" stroke="black" style="stroke:black;stroke-opacity:1;" stroke-width="2" stroke-linecap="round" stroke-linejoin="round"/>
</svg>
