<svg width="65" height="64" viewBox="0 0 65 64" fill="none" xmlns="http://www.w3.org/2000/svg">
<rect x="0.5" width="64" height="64" rx="10" fill="white" style="fill:white;fill-opacity:1;"/>
<path d="M22.3333 30.6667V36C22.3333 40.4 22.3333 42.6 23.7 43.9667C25.0667 45.3334 27.2667 45.3334 31.6667 45.3334H34.3333C38.7333 45.3334 40.9333 45.3334 42.3 43.9667C43.6667 42.6 43.6667 40.4 43.6667 36V30.6667M33 23.8094C33 22.4454 32.4582 21.1374 31.4937 20.1729C30.5293 19.2085 29.2213 18.6667 27.8573 18.6667H27.3813C26.0667 18.6667 25 19.732 25 21.048C25 22.1846 25.4515 23.2746 26.2551 24.0782C27.0588 24.8819 28.1488 25.3334 29.2853 25.3334H33M33 23.8094V25.3334M33 23.8094C33 22.4454 33.5418 21.1374 34.5063 20.1729C35.4707 19.2085 36.7787 18.6667 38.1427 18.6667H38.6187C39.9333 18.6667 41 19.732 41 21.048C41 21.6108 40.8892 22.168 40.6738 22.6879C40.4584 23.2079 40.1428 23.6803 39.7449 24.0782C39.3469 24.4761 38.8745 24.7918 38.3546 25.0072C37.8347 25.2225 37.2774 25.3334 36.7147 25.3334H33M33 30.6667V45.3334M21 28C21 27.0027 21 26.504 21.268 26.1334C21.4581 25.8787 21.71 25.6767 22 25.5467C22.464 25.3334 23.0867 25.3334 24.3333 25.3334H41.6667C42.9133 25.3334 43.536 25.3334 44 25.5467C44.304 25.688 44.556 25.8907 44.732 26.1334C45 26.504 45 27.0027 45 28C45 28.9974 45 29.4947 44.732 29.8667C44.5419 30.1214 44.29 30.3233 44 30.4534C43.536 30.6667 42.9133 30.6667 41.6667 30.6667H24.3333C23.0867 30.6667 22.464 30.6667 22 30.4534C21.71 30.3233 21.4581 30.1214 21.268 29.8667C21 29.4947 21 28.9974 21 28Z" stroke="black" style="stroke:black;stroke-opacity:1;" stroke-width="2" stroke-linecap="round" stroke-linejoin="round"/>
</svg>
