<svg width="40" height="40" viewBox="0 0 40 40" fill="none" xmlns="http://www.w3.org/2000/svg">
<rect width="40" height="40" rx="5" fill="#0171DF" style="fill:#0171DF;fill:color(display-p3 0.0039 0.4431 0.8745);fill-opacity:1;"/>
<rect x="0.5" y="0.5" width="39" height="39" rx="4.5" stroke="black" stroke-opacity="0.05" style="stroke:black;stroke-opacity:0.05;"/>
<path d="M10.5714 12.9286C10.5714 12.3034 10.8198 11.7039 11.2618 11.2618C11.7039 10.8198 12.3034 10.5714 12.9286 10.5714H24.5C25.1251 10.5714 25.7247 10.8198 26.1667 11.2618C26.6088 11.7039 26.8571 12.3034 26.8571 12.9286V14.0068C27.6707 14.0612 28.4333 14.4228 28.9903 15.0183C29.5473 15.6138 29.8572 16.3988 29.8571 17.2143V26.2143C29.8571 27.0667 29.5185 27.8843 28.9157 28.4871C28.3129 29.0899 27.4953 29.4286 26.6428 29.4286H13.7891C12.9366 29.4286 12.1191 29.0899 11.5163 28.4871C10.9135 27.8843 10.5748 27.0667 10.5748 26.2143V17.2143H10.5714V13.1428H10.5808C10.5747 13.0716 10.5716 13.0001 10.5714 12.9286ZM25.5714 12.9286C25.5714 12.3371 25.0914 11.8571 24.5 11.8571H12.9286C12.6444 11.8571 12.3719 11.97 12.1709 12.1709C11.97 12.3719 11.8571 12.6444 11.8571 12.9286C11.8571 13.2127 11.97 13.4852 12.1709 13.6862C12.3719 13.8871 12.6444 14 12.9286 14H25.5714V12.9286ZM24.0714 21.7143C23.9009 21.7143 23.7374 21.782 23.6168 21.9026C23.4963 22.0231 23.4286 22.1866 23.4286 22.3571C23.4286 22.5276 23.4963 22.6911 23.6168 22.8117C23.7374 22.9323 23.9009 23 24.0714 23H26.2143C26.3848 23 26.5483 22.9323 26.6688 22.8117C26.7894 22.6911 26.8571 22.5276 26.8571 22.3571C26.8571 22.1866 26.7894 22.0231 26.6688 21.9026C26.5483 21.782 26.3848 21.7143 26.2143 21.7143H24.0714Z" fill="white" style="fill:white;fill-opacity:1;"/>
</svg>
